ISO-10303-21;
HEADER;
/* Generated by software containing ST-Developer
 * from STEP Tools, Inc. (www.steptools.com) 
 */
/* OPTION: using custom renumber hook */

FILE_DESCRIPTION(
/* description */ ('STEP AP242 Edition 2',
'CAx-IF Rec.Pracs.---Representation and Presentation of Product Manufa
cturing Information (PMI)---4.0---2014-10-13',
'CAx-IF Rec.Pracs.---3D Tessellated Geometry---0.4---2014-09-14','2;1',
'CAx-IF Rec.Pracs.---User Defined Attributes---1.5---2016-08-15'),
/* implementation_level */ '2;1');

FILE_NAME(
/* name */ 'Part Studio 1',
/* time_stamp */ '2026-07-27T18:02:49Z',
/* author */ (''),
/* organization */ (''),
/* preprocessor_version */ 'ST-DEVELOPER v20',
/* originating_system */ 'ONSHAPE BY PTC INC, 1.218',
/* authorisation */ '  ');

FILE_SCHEMA (('AP242_MANAGED_MODEL_BASED_3D_ENGINEERING_MIM_LF { 1 0 10303 442 3 1 4 }'));
ENDSEC;

DATA;
#10=SHAPE_REPRESENTATION_RELATIONSHIP('','',#1275,#13);
#11=SHAPE_REPRESENTATION_RELATIONSHIP('','',#1276,#14);
#12=SHAPE_REPRESENTATION_RELATIONSHIP('','',#1277,#15);
#13=ADVANCED_BREP_SHAPE_REPRESENTATION('',(#1269),#2055);
#14=ADVANCED_BREP_SHAPE_REPRESENTATION('',(#1270),#2056);
#15=ADVANCED_BREP_SHAPE_REPRESENTATION('',(#1271),#2057);
#16=CYLINDRICAL_SURFACE('',#1295,0.001);
#17=CYLINDRICAL_SURFACE('',#1296,0.0035);
#18=CYLINDRICAL_SURFACE('',#1297,0.001);
#19=CYLINDRICAL_SURFACE('',#1298,0.001);
#20=CYLINDRICAL_SURFACE('',#1299,0.001);
#21=CYLINDRICAL_SURFACE('',#1310,0.001);
#22=CYLINDRICAL_SURFACE('',#1313,0.001);
#23=CYLINDRICAL_SURFACE('',#1316,0.001);
#24=CYLINDRICAL_SURFACE('',#1319,0.001);
#25=CYLINDRICAL_SURFACE('',#1332,0.001);
#26=CYLINDRICAL_SURFACE('',#1335,0.001);
#27=CYLINDRICAL_SURFACE('',#1338,0.001);
#28=CYLINDRICAL_SURFACE('',#1341,0.001);
#29=CYLINDRICAL_SURFACE('',#1379,0.001);
#30=CYLINDRICAL_SURFACE('',#1380,0.001);
#31=CYLINDRICAL_SURFACE('',#1381,0.001);
#32=CYLINDRICAL_SURFACE('',#1382,0.001);
#33=CIRCLE('',#1284,0.001);
#34=CIRCLE('',#1285,0.001);
#35=CIRCLE('',#1286,0.001);
#36=CIRCLE('',#1287,0.0035);
#37=CIRCLE('',#1288,0.001);
#38=CIRCLE('',#1290,0.001);
#39=CIRCLE('',#1291,0.001);
#40=CIRCLE('',#1292,0.001);
#41=CIRCLE('',#1293,0.0035);
#42=CIRCLE('',#1294,0.001);
#43=CIRCLE('',#1306,0.001);
#44=CIRCLE('',#1307,0.001);
#45=CIRCLE('',#1308,0.001);
#46=CIRCLE('',#1309,0.001);
#47=CIRCLE('',#1311,0.001);
#48=CIRCLE('',#1312,0.001);
#49=CIRCLE('',#1314,0.001);
#50=CIRCLE('',#1315,0.001);
#51=CIRCLE('',#1317,0.001);
#52=CIRCLE('',#1318,0.001);
#53=CIRCLE('',#1320,0.001);
#54=CIRCLE('',#1321,0.001);
#55=CIRCLE('',#1333,0.001);
#56=CIRCLE('',#1336,0.001);
#57=CIRCLE('',#1339,0.001);
#58=CIRCLE('',#1342,0.001);
#59=CIRCLE('',#1357,0.001);
#60=CIRCLE('',#1358,0.001);
#61=CIRCLE('',#1359,0.001);
#62=CIRCLE('',#1360,0.001);
#63=CIRCLE('',#1369,0.001);
#64=CIRCLE('',#1372,0.001);
#65=CIRCLE('',#1375,0.001);
#66=CIRCLE('',#1378,0.001);
#67=ORIENTED_EDGE('',*,*,#375,.F.);
#68=ORIENTED_EDGE('',*,*,#376,.F.);
#69=ORIENTED_EDGE('',*,*,#377,.T.);
#70=ORIENTED_EDGE('',*,*,#378,.T.);
#71=ORIENTED_EDGE('',*,*,#379,.T.);
#72=ORIENTED_EDGE('',*,*,#380,.F.);
#73=ORIENTED_EDGE('',*,*,#381,.F.);
#74=ORIENTED_EDGE('',*,*,#376,.T.);
#75=ORIENTED_EDGE('',*,*,#382,.T.);
#76=ORIENTED_EDGE('',*,*,#383,.F.);
#77=ORIENTED_EDGE('',*,*,#384,.F.);
#78=ORIENTED_EDGE('',*,*,#380,.T.);
#79=ORIENTED_EDGE('',*,*,#385,.F.);
#80=ORIENTED_EDGE('',*,*,#378,.F.);
#81=ORIENTED_EDGE('',*,*,#386,.T.);
#82=ORIENTED_EDGE('',*,*,#383,.T.);
#83=ORIENTED_EDGE('',*,*,#387,.F.);
#84=ORIENTED_EDGE('',*,*,#388,.F.);
#85=ORIENTED_EDGE('',*,*,#389,.F.);
#86=ORIENTED_EDGE('',*,*,#390,.F.);
#87=ORIENTED_EDGE('',*,*,#391,.F.);
#88=ORIENTED_EDGE('',*,*,#377,.F.);
#89=ORIENTED_EDGE('',*,*,#381,.T.);
#90=ORIENTED_EDGE('',*,*,#384,.T.);
#91=ORIENTED_EDGE('',*,*,#386,.F.);
#92=ORIENTED_EDGE('',*,*,#392,.T.);
#93=ORIENTED_EDGE('',*,*,#393,.T.);
#94=ORIENTED_EDGE('',*,*,#394,.T.);
#95=ORIENTED_EDGE('',*,*,#395,.T.);
#96=ORIENTED_EDGE('',*,*,#396,.T.);
#97=ORIENTED_EDGE('',*,*,#375,.T.);
#98=ORIENTED_EDGE('',*,*,#385,.T.);
#99=ORIENTED_EDGE('',*,*,#382,.F.);
#100=ORIENTED_EDGE('',*,*,#379,.F.);
#101=ORIENTED_EDGE('',*,*,#391,.T.);
#102=ORIENTED_EDGE('',*,*,#396,.F.);
#103=ORIENTED_EDGE('',*,*,#390,.T.);
#104=ORIENTED_EDGE('',*,*,#395,.F.);
#105=ORIENTED_EDGE('',*,*,#389,.T.);
#106=ORIENTED_EDGE('',*,*,#394,.F.);
#107=ORIENTED_EDGE('',*,*,#388,.T.);
#108=ORIENTED_EDGE('',*,*,#393,.F.);
#109=ORIENTED_EDGE('',*,*,#387,.T.);
#110=ORIENTED_EDGE('',*,*,#392,.F.);
#111=ORIENTED_EDGE('',*,*,#397,.T.);
#112=ORIENTED_EDGE('',*,*,#398,.T.);
#113=ORIENTED_EDGE('',*,*,#399,.F.);
#114=ORIENTED_EDGE('',*,*,#400,.T.);
#115=ORIENTED_EDGE('',*,*,#401,.F.);
#116=ORIENTED_EDGE('',*,*,#402,.F.);
#117=ORIENTED_EDGE('',*,*,#403,.F.);
#118=ORIENTED_EDGE('',*,*,#399,.T.);
#119=ORIENTED_EDGE('',*,*,#404,.F.);
#120=ORIENTED_EDGE('',*,*,#405,.F.);
#121=ORIENTED_EDGE('',*,*,#406,.F.);
#122=ORIENTED_EDGE('',*,*,#402,.T.);
#123=ORIENTED_EDGE('',*,*,#405,.T.);
#124=ORIENTED_EDGE('',*,*,#407,.T.);
#125=ORIENTED_EDGE('',*,*,#397,.F.);
#126=ORIENTED_EDGE('',*,*,#408,.T.);
#127=ORIENTED_EDGE('',*,*,#409,.F.);
#128=ORIENTED_EDGE('',*,*,#410,.F.);
#129=ORIENTED_EDGE('',*,*,#411,.F.);
#130=ORIENTED_EDGE('',*,*,#412,.F.);
#131=ORIENTED_EDGE('',*,*,#413,.T.);
#132=ORIENTED_EDGE('',*,*,#414,.F.);
#133=ORIENTED_EDGE('',*,*,#415,.T.);
#134=ORIENTED_EDGE('',*,*,#416,.T.);
#135=ORIENTED_EDGE('',*,*,#417,.T.);
#136=ORIENTED_EDGE('',*,*,#418,.T.);
#137=ORIENTED_EDGE('',*,*,#419,.F.);
#138=ORIENTED_EDGE('',*,*,#420,.F.);
#139=ORIENTED_EDGE('',*,*,#421,.F.);
#140=ORIENTED_EDGE('',*,*,#422,.T.);
#141=ORIENTED_EDGE('',*,*,#423,.F.);
#142=ORIENTED_EDGE('',*,*,#424,.T.);
#143=ORIENTED_EDGE('',*,*,#425,.F.);
#144=ORIENTED_EDGE('',*,*,#426,.T.);
#145=ORIENTED_EDGE('',*,*,#427,.F.);
#146=ORIENTED_EDGE('',*,*,#428,.T.);
#147=ORIENTED_EDGE('',*,*,#413,.F.);
#148=ORIENTED_EDGE('',*,*,#429,.F.);
#149=ORIENTED_EDGE('',*,*,#430,.T.);
#150=ORIENTED_EDGE('',*,*,#431,.T.);
#151=ORIENTED_EDGE('',*,*,#415,.F.);
#152=ORIENTED_EDGE('',*,*,#432,.F.);
#153=ORIENTED_EDGE('',*,*,#433,.T.);
#154=ORIENTED_EDGE('',*,*,#434,.T.);
#155=ORIENTED_EDGE('',*,*,#427,.T.);
#156=ORIENTED_EDGE('',*,*,#425,.T.);
#157=ORIENTED_EDGE('',*,*,#423,.T.);
#158=ORIENTED_EDGE('',*,*,#421,.T.);
#159=ORIENTED_EDGE('',*,*,#400,.F.);
#160=ORIENTED_EDGE('',*,*,#403,.T.);
#161=ORIENTED_EDGE('',*,*,#406,.T.);
#162=ORIENTED_EDGE('',*,*,#408,.F.);
#163=ORIENTED_EDGE('',*,*,#430,.F.);
#164=ORIENTED_EDGE('',*,*,#435,.F.);
#165=ORIENTED_EDGE('',*,*,#433,.F.);
#166=ORIENTED_EDGE('',*,*,#436,.T.);
#167=ORIENTED_EDGE('',*,*,#417,.F.);
#168=ORIENTED_EDGE('',*,*,#437,.F.);
#169=ORIENTED_EDGE('',*,*,#438,.T.);
#170=ORIENTED_EDGE('',*,*,#439,.T.);
#171=ORIENTED_EDGE('',*,*,#420,.T.);
#172=ORIENTED_EDGE('',*,*,#440,.F.);
#173=ORIENTED_EDGE('',*,*,#441,.F.);
#174=ORIENTED_EDGE('',*,*,#437,.T.);
#175=ORIENTED_EDGE('',*,*,#419,.T.);
#176=ORIENTED_EDGE('',*,*,#442,.F.);
#177=ORIENTED_EDGE('',*,*,#443,.F.);
#178=ORIENTED_EDGE('',*,*,#440,.T.);
#179=ORIENTED_EDGE('',*,*,#418,.F.);
#180=ORIENTED_EDGE('',*,*,#439,.F.);
#181=ORIENTED_EDGE('',*,*,#444,.T.);
#182=ORIENTED_EDGE('',*,*,#442,.T.);
#183=ORIENTED_EDGE('',*,*,#407,.F.);
#184=ORIENTED_EDGE('',*,*,#404,.T.);
#185=ORIENTED_EDGE('',*,*,#401,.T.);
#186=ORIENTED_EDGE('',*,*,#398,.F.);
#187=ORIENTED_EDGE('',*,*,#422,.F.);
#188=ORIENTED_EDGE('',*,*,#424,.F.);
#189=ORIENTED_EDGE('',*,*,#426,.F.);
#190=ORIENTED_EDGE('',*,*,#428,.F.);
#191=ORIENTED_EDGE('',*,*,#438,.F.);
#192=ORIENTED_EDGE('',*,*,#441,.T.);
#193=ORIENTED_EDGE('',*,*,#443,.T.);
#194=ORIENTED_EDGE('',*,*,#444,.F.);
#195=ORIENTED_EDGE('',*,*,#414,.T.);
#196=ORIENTED_EDGE('',*,*,#431,.F.);
#197=ORIENTED_EDGE('',*,*,#436,.F.);
#198=ORIENTED_EDGE('',*,*,#432,.T.);
#199=ORIENTED_EDGE('',*,*,#416,.F.);
#200=ORIENTED_EDGE('',*,*,#434,.F.);
#201=ORIENTED_EDGE('',*,*,#435,.T.);
#202=ORIENTED_EDGE('',*,*,#429,.T.);
#203=ORIENTED_EDGE('',*,*,#445,.F.);
#204=ORIENTED_EDGE('',*,*,#412,.T.);
#205=ORIENTED_EDGE('',*,*,#445,.T.);
#206=ORIENTED_EDGE('',*,*,#446,.F.);
#207=ORIENTED_EDGE('',*,*,#411,.T.);
#208=ORIENTED_EDGE('',*,*,#446,.T.);
#209=ORIENTED_EDGE('',*,*,#447,.F.);
#210=ORIENTED_EDGE('',*,*,#410,.T.);
#211=ORIENTED_EDGE('',*,*,#447,.T.);
#212=ORIENTED_EDGE('',*,*,#448,.F.);
#213=ORIENTED_EDGE('',*,*,#409,.T.);
#214=ORIENTED_EDGE('',*,*,#448,.T.);
#215=ORIENTED_EDGE('',*,*,#449,.T.);
#216=ORIENTED_EDGE('',*,*,#450,.T.);
#217=ORIENTED_EDGE('',*,*,#451,.T.);
#218=ORIENTED_EDGE('',*,*,#452,.T.);
#219=ORIENTED_EDGE('',*,*,#453,.F.);
#220=ORIENTED_EDGE('',*,*,#454,.T.);
#221=ORIENTED_EDGE('',*,*,#455,.F.);
#222=ORIENTED_EDGE('',*,*,#456,.F.);
#223=ORIENTED_EDGE('',*,*,#455,.T.);
#224=ORIENTED_EDGE('',*,*,#457,.T.);
#225=ORIENTED_EDGE('',*,*,#458,.T.);
#226=ORIENTED_EDGE('',*,*,#459,.T.);
#227=ORIENTED_EDGE('',*,*,#460,.F.);
#228=ORIENTED_EDGE('',*,*,#461,.T.);
#229=ORIENTED_EDGE('',*,*,#462,.F.);
#230=ORIENTED_EDGE('',*,*,#463,.F.);
#231=ORIENTED_EDGE('',*,*,#464,.F.);
#232=ORIENTED_EDGE('',*,*,#465,.T.);
#233=ORIENTED_EDGE('',*,*,#466,.T.);
#234=ORIENTED_EDGE('',*,*,#467,.F.);
#235=ORIENTED_EDGE('',*,*,#468,.T.);
#236=ORIENTED_EDGE('',*,*,#469,.T.);
#237=ORIENTED_EDGE('',*,*,#470,.F.);
#238=ORIENTED_EDGE('',*,*,#471,.F.);
#239=ORIENTED_EDGE('',*,*,#472,.F.);
#240=ORIENTED_EDGE('',*,*,#473,.T.);
#241=ORIENTED_EDGE('',*,*,#474,.T.);
#242=ORIENTED_EDGE('',*,*,#452,.F.);
#243=ORIENTED_EDGE('',*,*,#475,.F.);
#244=ORIENTED_EDGE('',*,*,#476,.T.);
#245=ORIENTED_EDGE('',*,*,#477,.T.);
#246=ORIENTED_EDGE('',*,*,#459,.F.);
#247=ORIENTED_EDGE('',*,*,#478,.T.);
#248=ORIENTED_EDGE('',*,*,#479,.F.);
#249=ORIENTED_EDGE('',*,*,#480,.F.);
#250=ORIENTED_EDGE('',*,*,#481,.T.);
#251=ORIENTED_EDGE('',*,*,#482,.F.);
#252=ORIENTED_EDGE('',*,*,#483,.T.);
#253=ORIENTED_EDGE('',*,*,#468,.F.);
#254=ORIENTED_EDGE('',*,*,#484,.F.);
#255=ORIENTED_EDGE('',*,*,#485,.F.);
#256=ORIENTED_EDGE('',*,*,#449,.F.);
#257=ORIENTED_EDGE('',*,*,#486,.T.);
#258=ORIENTED_EDGE('',*,*,#487,.T.);
#259=ORIENTED_EDGE('',*,*,#488,.F.);
#260=ORIENTED_EDGE('',*,*,#489,.F.);
#261=ORIENTED_EDGE('',*,*,#487,.F.);
#262=ORIENTED_EDGE('',*,*,#490,.T.);
#263=ORIENTED_EDGE('',*,*,#462,.T.);
#264=ORIENTED_EDGE('',*,*,#491,.F.);
#265=ORIENTED_EDGE('',*,*,#492,.T.);
#266=ORIENTED_EDGE('',*,*,#466,.F.);
#267=ORIENTED_EDGE('',*,*,#493,.F.);
#268=ORIENTED_EDGE('',*,*,#494,.F.);
#269=ORIENTED_EDGE('',*,*,#495,.T.);
#270=ORIENTED_EDGE('',*,*,#496,.T.);
#271=ORIENTED_EDGE('',*,*,#486,.F.);
#272=ORIENTED_EDGE('',*,*,#456,.T.);
#273=ORIENTED_EDGE('',*,*,#463,.T.);
#274=ORIENTED_EDGE('',*,*,#490,.F.);
#275=ORIENTED_EDGE('',*,*,#495,.F.);
#276=ORIENTED_EDGE('',*,*,#497,.F.);
#277=ORIENTED_EDGE('',*,*,#480,.T.);
#278=ORIENTED_EDGE('',*,*,#498,.T.);
#279=ORIENTED_EDGE('',*,*,#499,.T.);
#280=ORIENTED_EDGE('',*,*,#500,.T.);
#281=ORIENTED_EDGE('',*,*,#501,.T.);
#282=ORIENTED_EDGE('',*,*,#502,.T.);
#283=ORIENTED_EDGE('',*,*,#478,.F.);
#284=ORIENTED_EDGE('',*,*,#503,.T.);
#285=ORIENTED_EDGE('',*,*,#493,.T.);
#286=ORIENTED_EDGE('',*,*,#504,.F.);
#287=ORIENTED_EDGE('',*,*,#505,.F.);
#288=ORIENTED_EDGE('',*,*,#506,.T.);
#289=ORIENTED_EDGE('',*,*,#507,.T.);
#290=ORIENTED_EDGE('',*,*,#508,.F.);
#291=ORIENTED_EDGE('',*,*,#505,.T.);
#292=ORIENTED_EDGE('',*,*,#509,.F.);
#293=ORIENTED_EDGE('',*,*,#475,.T.);
#294=ORIENTED_EDGE('',*,*,#458,.F.);
#295=ORIENTED_EDGE('',*,*,#510,.F.);
#296=ORIENTED_EDGE('',*,*,#511,.T.);
#297=ORIENTED_EDGE('',*,*,#473,.F.);
#298=ORIENTED_EDGE('',*,*,#512,.F.);
#299=ORIENTED_EDGE('',*,*,#513,.F.);
#300=ORIENTED_EDGE('',*,*,#484,.T.);
#301=ORIENTED_EDGE('',*,*,#471,.T.);
#302=ORIENTED_EDGE('',*,*,#514,.T.);
#303=ORIENTED_EDGE('',*,*,#506,.F.);
#304=ORIENTED_EDGE('',*,*,#514,.F.);
#305=ORIENTED_EDGE('',*,*,#470,.T.);
#306=ORIENTED_EDGE('',*,*,#515,.T.);
#307=ORIENTED_EDGE('',*,*,#507,.F.);
#308=ORIENTED_EDGE('',*,*,#515,.F.);
#309=ORIENTED_EDGE('',*,*,#469,.F.);
#310=ORIENTED_EDGE('',*,*,#483,.F.);
#311=ORIENTED_EDGE('',*,*,#516,.T.);
#312=ORIENTED_EDGE('',*,*,#517,.T.);
#313=ORIENTED_EDGE('',*,*,#464,.T.);
#314=ORIENTED_EDGE('',*,*,#518,.F.);
#315=ORIENTED_EDGE('',*,*,#519,.T.);
#316=ORIENTED_EDGE('',*,*,#460,.T.);
#317=ORIENTED_EDGE('',*,*,#477,.F.);
#318=ORIENTED_EDGE('',*,*,#520,.T.);
#319=ORIENTED_EDGE('',*,*,#508,.T.);
#320=ORIENTED_EDGE('',*,*,#520,.F.);
#321=ORIENTED_EDGE('',*,*,#476,.F.);
#322=ORIENTED_EDGE('',*,*,#509,.T.);
#323=ORIENTED_EDGE('',*,*,#504,.T.);
#324=ORIENTED_EDGE('',*,*,#496,.F.);
#325=ORIENTED_EDGE('',*,*,#498,.F.);
#326=ORIENTED_EDGE('',*,*,#479,.T.);
#327=ORIENTED_EDGE('',*,*,#503,.F.);
#328=ORIENTED_EDGE('',*,*,#481,.F.);
#329=ORIENTED_EDGE('',*,*,#497,.T.);
#330=ORIENTED_EDGE('',*,*,#494,.T.);
#331=ORIENTED_EDGE('',*,*,#467,.T.);
#332=ORIENTED_EDGE('',*,*,#492,.F.);
#333=ORIENTED_EDGE('',*,*,#521,.F.);
#334=ORIENTED_EDGE('',*,*,#518,.T.);
#335=ORIENTED_EDGE('',*,*,#522,.F.);
#336=ORIENTED_EDGE('',*,*,#519,.F.);
#337=ORIENTED_EDGE('',*,*,#521,.T.);
#338=ORIENTED_EDGE('',*,*,#491,.T.);
#339=ORIENTED_EDGE('',*,*,#461,.F.);
#340=ORIENTED_EDGE('',*,*,#474,.F.);
#341=ORIENTED_EDGE('',*,*,#511,.F.);
#342=ORIENTED_EDGE('',*,*,#523,.T.);
#343=ORIENTED_EDGE('',*,*,#453,.T.);
#344=ORIENTED_EDGE('',*,*,#524,.F.);
#345=ORIENTED_EDGE('',*,*,#523,.F.);
#346=ORIENTED_EDGE('',*,*,#510,.T.);
#347=ORIENTED_EDGE('',*,*,#457,.F.);
#348=ORIENTED_EDGE('',*,*,#454,.F.);
#349=ORIENTED_EDGE('',*,*,#472,.T.);
#350=ORIENTED_EDGE('',*,*,#451,.F.);
#351=ORIENTED_EDGE('',*,*,#525,.F.);
#352=ORIENTED_EDGE('',*,*,#512,.T.);
#353=ORIENTED_EDGE('',*,*,#526,.F.);
#354=ORIENTED_EDGE('',*,*,#513,.T.);
#355=ORIENTED_EDGE('',*,*,#525,.T.);
#356=ORIENTED_EDGE('',*,*,#450,.F.);
#357=ORIENTED_EDGE('',*,*,#485,.T.);
#358=ORIENTED_EDGE('',*,*,#465,.F.);
#359=ORIENTED_EDGE('',*,*,#517,.F.);
#360=ORIENTED_EDGE('',*,*,#527,.T.);
#361=ORIENTED_EDGE('',*,*,#488,.T.);
#362=ORIENTED_EDGE('',*,*,#528,.F.);
#363=ORIENTED_EDGE('',*,*,#527,.F.);
#364=ORIENTED_EDGE('',*,*,#516,.F.);
#365=ORIENTED_EDGE('',*,*,#482,.T.);
#366=ORIENTED_EDGE('',*,*,#489,.T.);
#367=ORIENTED_EDGE('',*,*,#528,.T.);
#368=ORIENTED_EDGE('',*,*,#501,.F.);
#369=ORIENTED_EDGE('',*,*,#526,.T.);
#370=ORIENTED_EDGE('',*,*,#500,.F.);
#371=ORIENTED_EDGE('',*,*,#524,.T.);
#372=ORIENTED_EDGE('',*,*,#499,.F.);
#373=ORIENTED_EDGE('',*,*,#522,.T.);
#374=ORIENTED_EDGE('',*,*,#502,.F.);
#375=EDGE_CURVE('',#529,#530,#643,.T.);
#376=EDGE_CURVE('',#531,#529,#644,.T.);
#377=EDGE_CURVE('',#531,#532,#645,.T.);
#378=EDGE_CURVE('',#532,#530,#646,.T.);
#379=EDGE_CURVE('',#529,#533,#647,.T.);
#380=EDGE_CURVE('',#534,#533,#648,.T.);
#381=EDGE_CURVE('',#531,#534,#649,.T.);
#382=EDGE_CURVE('',#533,#535,#650,.T.);
#383=EDGE_CURVE('',#536,#535,#651,.T.);
#384=EDGE_CURVE('',#534,#536,#652,.T.);
#385=EDGE_CURVE('',#530,#535,#653,.T.);
#386=EDGE_CURVE('',#532,#536,#654,.T.);
#387=EDGE_CURVE('',#537,#537,#33,.T.);
#388=EDGE_CURVE('',#538,#538,#34,.T.);
#389=EDGE_CURVE('',#539,#539,#35,.T.);
#390=EDGE_CURVE('',#540,#540,#36,.T.);
#391=EDGE_CURVE('',#541,#541,#37,.T.);
#392=EDGE_CURVE('',#542,#542,#38,.T.);
#393=EDGE_CURVE('',#543,#543,#39,.T.);
#394=EDGE_CURVE('',#544,#544,#40,.T.);
#395=EDGE_CURVE('',#545,#545,#41,.T.);
#396=EDGE_CURVE('',#546,#546,#42,.T.);
#397=EDGE_CURVE('',#547,#548,#655,.T.);
#398=EDGE_CURVE('',#548,#549,#656,.T.);
#399=EDGE_CURVE('',#550,#549,#657,.T.);
#400=EDGE_CURVE('',#550,#547,#658,.T.);
#401=EDGE_CURVE('',#551,#549,#659,.T.);
#402=EDGE_CURVE('',#552,#551,#660,.T.);
#403=EDGE_CURVE('',#550,#552,#661,.T.);
#404=EDGE_CURVE('',#553,#551,#662,.T.);
#405=EDGE_CURVE('',#554,#553,#663,.T.);
#406=EDGE_CURVE('',#552,#554,#664,.T.);
#407=EDGE_CURVE('',#553,#548,#665,.T.);
#408=EDGE_CURVE('',#547,#554,#666,.T.);
#409=EDGE_CURVE('',#555,#555,#43,.T.);
#410=EDGE_CURVE('',#556,#556,#44,.T.);
#411=EDGE_CURVE('',#557,#557,#45,.T.);
#412=EDGE_CURVE('',#558,#558,#46,.T.);
#413=EDGE_CURVE('',#559,#560,#667,.T.);
#414=EDGE_CURVE('',#561,#560,#668,.T.);
#415=EDGE_CURVE('',#561,#562,#669,.T.);
#416=EDGE_CURVE('',#562,#559,#670,.T.);
#417=EDGE_CURVE('',#563,#564,#671,.T.);
#418=EDGE_CURVE('',#564,#565,#672,.T.);
#419=EDGE_CURVE('',#566,#565,#673,.T.);
#420=EDGE_CURVE('',#563,#566,#674,.T.);
#421=EDGE_CURVE('',#567,#567,#47,.F.);
#422=EDGE_CURVE('',#568,#568,#48,.T.);
#423=EDGE_CURVE('',#569,#569,#49,.F.);
#424=EDGE_CURVE('',#570,#570,#50,.T.);
#425=EDGE_CURVE('',#571,#571,#51,.F.);
#426=EDGE_CURVE('',#572,#572,#52,.T.);
#427=EDGE_CURVE('',#573,#573,#53,.F.);
#428=EDGE_CURVE('',#574,#574,#54,.T.);
#429=EDGE_CURVE('',#575,#559,#675,.T.);
#430=EDGE_CURVE('',#575,#576,#676,.T.);
#431=EDGE_CURVE('',#576,#560,#677,.T.);
#432=EDGE_CURVE('',#577,#561,#678,.T.);
#433=EDGE_CURVE('',#577,#578,#679,.T.);
#434=EDGE_CURVE('',#578,#562,#680,.T.);
#435=EDGE_CURVE('',#578,#575,#681,.T.);
#436=EDGE_CURVE('',#577,#576,#682,.T.);
#437=EDGE_CURVE('',#579,#563,#683,.T.);
#438=EDGE_CURVE('',#579,#580,#684,.T.);
#439=EDGE_CURVE('',#580,#564,#685,.T.);
#440=EDGE_CURVE('',#581,#566,#686,.T.);
#441=EDGE_CURVE('',#579,#581,#687,.T.);
#442=EDGE_CURVE('',#582,#565,#688,.T.);
#443=EDGE_CURVE('',#581,#582,#689,.T.);
#444=EDGE_CURVE('',#580,#582,#690,.T.);
#445=EDGE_CURVE('',#583,#583,#55,.T.);
#446=EDGE_CURVE('',#584,#584,#56,.T.);
#447=EDGE_CURVE('',#585,#585,#57,.T.);
#448=EDGE_CURVE('',#586,#586,#58,.T.);
#449=EDGE_CURVE('',#587,#588,#691,.T.);
#450=EDGE_CURVE('',#588,#589,#692,.T.);
#451=EDGE_CURVE('',#589,#590,#693,.T.);
#452=EDGE_CURVE('',#590,#591,#694,.T.);
#453=EDGE_CURVE('',#592,#591,#695,.T.);
#454=EDGE_CURVE('',#592,#593,#696,.T.);
#455=EDGE_CURVE('',#594,#593,#697,.T.);
#456=EDGE_CURVE('',#587,#594,#698,.T.);
#457=EDGE_CURVE('',#593,#595,#699,.T.);
#458=EDGE_CURVE('',#595,#596,#700,.T.);
#459=EDGE_CURVE('',#596,#597,#701,.T.);
#460=EDGE_CURVE('',#598,#597,#702,.T.);
#461=EDGE_CURVE('',#598,#599,#703,.T.);
#462=EDGE_CURVE('',#600,#599,#704,.T.);
#463=EDGE_CURVE('',#594,#600,#705,.T.);
#464=EDGE_CURVE('',#601,#602,#706,.T.);
#465=EDGE_CURVE('',#601,#603,#707,.T.);
#466=EDGE_CURVE('',#603,#604,#708,.T.);
#467=EDGE_CURVE('',#602,#604,#709,.T.);
#468=EDGE_CURVE('',#605,#606,#710,.T.);
#469=EDGE_CURVE('',#606,#607,#711,.T.);
#470=EDGE_CURVE('',#608,#607,#712,.T.);
#471=EDGE_CURVE('',#605,#608,#713,.T.);
#472=EDGE_CURVE('',#609,#590,#714,.T.);
#473=EDGE_CURVE('',#609,#610,#715,.T.);
#474=EDGE_CURVE('',#610,#591,#716,.T.);
#475=EDGE_CURVE('',#611,#596,#717,.T.);
#476=EDGE_CURVE('',#611,#612,#718,.T.);
#477=EDGE_CURVE('',#612,#597,#719,.T.);
#478=EDGE_CURVE('',#613,#614,#720,.T.);
#479=EDGE_CURVE('',#615,#614,#721,.T.);
#480=EDGE_CURVE('',#616,#615,#722,.T.);
#481=EDGE_CURVE('',#616,#613,#723,.T.);
#482=EDGE_CURVE('',#617,#618,#724,.T.);
#483=EDGE_CURVE('',#617,#606,#725,.T.);
#484=EDGE_CURVE('',#619,#605,#726,.T.);
#485=EDGE_CURVE('',#588,#619,#727,.T.);
#486=EDGE_CURVE('',#587,#620,#728,.T.);
#487=EDGE_CURVE('',#620,#618,#729,.T.);
#488=EDGE_CURVE('',#621,#603,#730,.T.);
#489=EDGE_CURVE('',#618,#621,#731,.T.);
#490=EDGE_CURVE('',#620,#600,#732,.T.);
#491=EDGE_CURVE('',#622,#599,#733,.T.);
#492=EDGE_CURVE('',#622,#604,#734,.T.);
#493=EDGE_CURVE('',#623,#624,#735,.T.);
#494=EDGE_CURVE('',#625,#623,#736,.T.);
#495=EDGE_CURVE('',#625,#626,#737,.T.);
#496=EDGE_CURVE('',#626,#624,#738,.T.);
#497=EDGE_CURVE('',#616,#625,#739,.T.);
#498=EDGE_CURVE('',#615,#626,#740,.T.);
#499=EDGE_CURVE('',#627,#627,#59,.T.);
#500=EDGE_CURVE('',#628,#628,#60,.T.);
#501=EDGE_CURVE('',#629,#629,#61,.T.);
#502=EDGE_CURVE('',#630,#630,#62,.T.);
#503=EDGE_CURVE('',#613,#623,#741,.T.);
#504=EDGE_CURVE('',#614,#624,#742,.T.);
#505=EDGE_CURVE('',#631,#632,#743,.T.);
#506=EDGE_CURVE('',#631,#633,#744,.T.);
#507=EDGE_CURVE('',#633,#634,#745,.T.);
#508=EDGE_CURVE('',#632,#634,#746,.T.);
#509=EDGE_CURVE('',#611,#632,#747,.T.);
#510=EDGE_CURVE('',#635,#595,#748,.T.);
#511=EDGE_CURVE('',#635,#610,#749,.T.);
#512=EDGE_CURVE('',#636,#609,#750,.T.);
#513=EDGE_CURVE('',#619,#636,#751,.T.);
#514=EDGE_CURVE('',#608,#631,#752,.T.);
#515=EDGE_CURVE('',#607,#633,#753,.T.);
#516=EDGE_CURVE('',#617,#637,#754,.T.);
#517=EDGE_CURVE('',#637,#601,#755,.T.);
#518=EDGE_CURVE('',#638,#602,#756,.T.);
#519=EDGE_CURVE('',#638,#598,#757,.T.);
#520=EDGE_CURVE('',#612,#634,#758,.T.);
#521=EDGE_CURVE('',#638,#622,#759,.T.);
#522=EDGE_CURVE('',#639,#639,#63,.T.);
#523=EDGE_CURVE('',#635,#592,#760,.T.);
#524=EDGE_CURVE('',#640,#640,#64,.T.);
#525=EDGE_CURVE('',#636,#589,#761,.T.);
#526=EDGE_CURVE('',#641,#641,#65,.T.);
#527=EDGE_CURVE('',#637,#621,#762,.T.);
#528=EDGE_CURVE('',#642,#642,#66,.T.);
#529=VERTEX_POINT('',#1716);
#530=VERTEX_POINT('',#1717);
#531=VERTEX_POINT('',#1719);
#532=VERTEX_POINT('',#1721);
#533=VERTEX_POINT('',#1725);
#534=VERTEX_POINT('',#1727);
#535=VERTEX_POINT('',#1731);
#536=VERTEX_POINT('',#1733);
#537=VERTEX_POINT('',#1740);
#538=VERTEX_POINT('',#1742);
#539=VERTEX_POINT('',#1744);
#540=VERTEX_POINT('',#1746);
#541=VERTEX_POINT('',#1748);
#542=VERTEX_POINT('',#1751);
#543=VERTEX_POINT('',#1753);
#544=VERTEX_POINT('',#1755);
#545=VERTEX_POINT('',#1757);
#546=VERTEX_POINT('',#1759);
#547=VERTEX_POINT('',#1768);
#548=VERTEX_POINT('',#1769);
#549=VERTEX_POINT('',#1771);
#550=VERTEX_POINT('',#1773);
#551=VERTEX_POINT('',#1777);
#552=VERTEX_POINT('',#1779);
#553=VERTEX_POINT('',#1783);
#554=VERTEX_POINT('',#1785);
#555=VERTEX_POINT('',#1792);
#556=VERTEX_POINT('',#1794);
#557=VERTEX_POINT('',#1796);
#558=VERTEX_POINT('',#1798);
#559=VERTEX_POINT('',#1800);
#560=VERTEX_POINT('',#1801);
#561=VERTEX_POINT('',#1803);
#562=VERTEX_POINT('',#1805);
#563=VERTEX_POINT('',#1808);
#564=VERTEX_POINT('',#1809);
#565=VERTEX_POINT('',#1811);
#566=VERTEX_POINT('',#1813);
#567=VERTEX_POINT('',#1817);
#568=VERTEX_POINT('',#1819);
#569=VERTEX_POINT('',#1822);
#570=VERTEX_POINT('',#1824);
#571=VERTEX_POINT('',#1827);
#572=VERTEX_POINT('',#1829);
#573=VERTEX_POINT('',#1832);
#574=VERTEX_POINT('',#1834);
#575=VERTEX_POINT('',#1837);
#576=VERTEX_POINT('',#1839);
#577=VERTEX_POINT('',#1843);
#578=VERTEX_POINT('',#1845);
#579=VERTEX_POINT('',#1852);
#580=VERTEX_POINT('',#1854);
#581=VERTEX_POINT('',#1858);
#582=VERTEX_POINT('',#1862);
#583=VERTEX_POINT('',#1871);
#584=VERTEX_POINT('',#1875);
#585=VERTEX_POINT('',#1879);
#586=VERTEX_POINT('',#1883);
#587=VERTEX_POINT('',#1888);
#588=VERTEX_POINT('',#1889);
#589=VERTEX_POINT('',#1891);
#590=VERTEX_POINT('',#1893);
#591=VERTEX_POINT('',#1895);
#592=VERTEX_POINT('',#1897);
#593=VERTEX_POINT('',#1899);
#594=VERTEX_POINT('',#1901);
#595=VERTEX_POINT('',#1905);
#596=VERTEX_POINT('',#1907);
#597=VERTEX_POINT('',#1909);
#598=VERTEX_POINT('',#1911);
#599=VERTEX_POINT('',#1913);
#600=VERTEX_POINT('',#1915);
#601=VERTEX_POINT('',#1919);
#602=VERTEX_POINT('',#1920);
#603=VERTEX_POINT('',#1922);
#604=VERTEX_POINT('',#1924);
#605=VERTEX_POINT('',#1928);
#606=VERTEX_POINT('',#1929);
#607=VERTEX_POINT('',#1931);
#608=VERTEX_POINT('',#1933);
#609=VERTEX_POINT('',#1937);
#610=VERTEX_POINT('',#1939);
#611=VERTEX_POINT('',#1943);
#612=VERTEX_POINT('',#1945);
#613=VERTEX_POINT('',#1949);
#614=VERTEX_POINT('',#1950);
#615=VERTEX_POINT('',#1952);
#616=VERTEX_POINT('',#1954);
#617=VERTEX_POINT('',#1958);
#618=VERTEX_POINT('',#1959);
#619=VERTEX_POINT('',#1962);
#620=VERTEX_POINT('',#1965);
#621=VERTEX_POINT('',#1969);
#622=VERTEX_POINT('',#1973);
#623=VERTEX_POINT('',#1977);
#624=VERTEX_POINT('',#1978);
#625=VERTEX_POINT('',#1980);
#626=VERTEX_POINT('',#1982);
#627=VERTEX_POINT('',#1989);
#628=VERTEX_POINT('',#1991);
#629=VERTEX_POINT('',#1993);
#630=VERTEX_POINT('',#1995);
#631=VERTEX_POINT('',#1999);
#632=VERTEX_POINT('',#2000);
#633=VERTEX_POINT('',#2002);
#634=VERTEX_POINT('',#2004);
#635=VERTEX_POINT('',#2009);
#636=VERTEX_POINT('',#2012);
#637=VERTEX_POINT('',#2019);
#638=VERTEX_POINT('',#2022);
#639=VERTEX_POINT('',#2032);
#640=VERTEX_POINT('',#2037);
#641=VERTEX_POINT('',#2042);
#642=VERTEX_POINT('',#2047);
#643=LINE('',#1715,#763);
#644=LINE('',#1718,#764);
#645=LINE('',#1720,#765);
#646=LINE('',#1722,#766);
#647=LINE('',#1724,#767);
#648=LINE('',#1726,#768);
#649=LINE('',#1728,#769);
#650=LINE('',#1730,#770);
#651=LINE('',#1732,#771);
#652=LINE('',#1734,#772);
#653=LINE('',#1736,#773);
#654=LINE('',#1737,#774);
#655=LINE('',#1767,#775);
#656=LINE('',#1770,#776);
#657=LINE('',#1772,#777);
#658=LINE('',#1774,#778);
#659=LINE('',#1776,#779);
#660=LINE('',#1778,#780);
#661=LINE('',#1780,#781);
#662=LINE('',#1782,#782);
#663=LINE('',#1784,#783);
#664=LINE('',#1786,#784);
#665=LINE('',#1788,#785);
#666=LINE('',#1789,#786);
#667=LINE('',#1799,#787);
#668=LINE('',#1802,#788);
#669=LINE('',#1804,#789);
#670=LINE('',#1806,#790);
#671=LINE('',#1807,#791);
#672=LINE('',#1810,#792);
#673=LINE('',#1812,#793);
#674=LINE('',#1814,#794);
#675=LINE('',#1836,#795);
#676=LINE('',#1838,#796);
#677=LINE('',#1840,#797);
#678=LINE('',#1842,#798);
#679=LINE('',#1844,#799);
#680=LINE('',#1846,#800);
#681=LINE('',#1848,#801);
#682=LINE('',#1849,#802);
#683=LINE('',#1851,#803);
#684=LINE('',#1853,#804);
#685=LINE('',#1855,#805);
#686=LINE('',#1857,#806);
#687=LINE('',#1859,#807);
#688=LINE('',#1861,#808);
#689=LINE('',#1863,#809);
#690=LINE('',#1865,#810);
#691=LINE('',#1887,#811);
#692=LINE('',#1890,#812);
#693=LINE('',#1892,#813);
#694=LINE('',#1894,#814);
#695=LINE('',#1896,#815);
#696=LINE('',#1898,#816);
#697=LINE('',#1900,#817);
#698=LINE('',#1902,#818);
#699=LINE('',#1904,#819);
#700=LINE('',#1906,#820);
#701=LINE('',#1908,#821);
#702=LINE('',#1910,#822);
#703=LINE('',#1912,#823);
#704=LINE('',#1914,#824);
#705=LINE('',#1916,#825);
#706=LINE('',#1918,#826);
#707=LINE('',#1921,#827);
#708=LINE('',#1923,#828);
#709=LINE('',#1925,#829);
#710=LINE('',#1927,#830);
#711=LINE('',#1930,#831);
#712=LINE('',#1932,#832);
#713=LINE('',#1934,#833);
#714=LINE('',#1936,#834);
#715=LINE('',#1938,#835);
#716=LINE('',#1940,#836);
#717=LINE('',#1942,#837);
#718=LINE('',#1944,#838);
#719=LINE('',#1946,#839);
#720=LINE('',#1948,#840);
#721=LINE('',#1951,#841);
#722=LINE('',#1953,#842);
#723=LINE('',#1955,#843);
#724=LINE('',#1957,#844);
#725=LINE('',#1960,#845);
#726=LINE('',#1961,#846);
#727=LINE('',#1963,#847);
#728=LINE('',#1964,#848);
#729=LINE('',#1966,#849);
#730=LINE('',#1968,#850);
#731=LINE('',#1970,#851);
#732=LINE('',#1971,#852);
#733=LINE('',#1972,#853);
#734=LINE('',#1974,#854);
#735=LINE('',#1976,#855);
#736=LINE('',#1979,#856);
#737=LINE('',#1981,#857);
#738=LINE('',#1983,#858);
#739=LINE('',#1985,#859);
#740=LINE('',#1986,#860);
#741=LINE('',#1996,#861);
#742=LINE('',#1997,#862);
#743=LINE('',#1998,#863);
#744=LINE('',#2001,#864);
#745=LINE('',#2003,#865);
#746=LINE('',#2005,#866);
#747=LINE('',#2007,#867);
#748=LINE('',#2008,#868);
#749=LINE('',#2010,#869);
#750=LINE('',#2011,#870);
#751=LINE('',#2013,#871);
#752=LINE('',#2014,#872);
#753=LINE('',#2016,#873);
#754=LINE('',#2018,#874);
#755=LINE('',#2020,#875);
#756=LINE('',#2021,#876);
#757=LINE('',#2023,#877);
#758=LINE('',#2024,#878);
#759=LINE('',#2029,#879);
#760=LINE('',#2034,#880);
#761=LINE('',#2039,#881);
#762=LINE('',#2044,#882);
#763=VECTOR('',#1387,1.);
#764=VECTOR('',#1388,1.);
#765=VECTOR('',#1389,1.);
#766=VECTOR('',#1390,1.);
#767=VECTOR('',#1393,1.);
#768=VECTOR('',#1394,1.);
#769=VECTOR('',#1395,1.);
#770=VECTOR('',#1398,1.);
#771=VECTOR('',#1399,1.);
#772=VECTOR('',#1400,1.);
#773=VECTOR('',#1403,1.);
#774=VECTOR('',#1404,1.);
#775=VECTOR('',#1443,1.);
#776=VECTOR('',#1444,1.);
#777=VECTOR('',#1445,1.);
#778=VECTOR('',#1446,1.);
#779=VECTOR('',#1449,1.);
#780=VECTOR('',#1450,1.);
#781=VECTOR('',#1451,1.);
#782=VECTOR('',#1454,1.);
#783=VECTOR('',#1455,1.);
#784=VECTOR('',#1456,1.);
#785=VECTOR('',#1459,1.);
#786=VECTOR('',#1460,1.);
#787=VECTOR('',#1471,1.);
#788=VECTOR('',#1472,1.);
#789=VECTOR('',#1473,1.);
#790=VECTOR('',#1474,1.);
#791=VECTOR('',#1475,1.);
#792=VECTOR('',#1476,1.);
#793=VECTOR('',#1477,1.);
#794=VECTOR('',#1478,1.);
#795=VECTOR('',#1505,1.);
#796=VECTOR('',#1506,1.);
#797=VECTOR('',#1507,1.);
#798=VECTOR('',#1510,1.);
#799=VECTOR('',#1511,1.);
#800=VECTOR('',#1512,1.);
#801=VECTOR('',#1515,1.);
#802=VECTOR('',#1516,1.);
#803=VECTOR('',#1519,1.);
#804=VECTOR('',#1520,1.);
#805=VECTOR('',#1521,1.);
#806=VECTOR('',#1524,1.);
#807=VECTOR('',#1525,1.);
#808=VECTOR('',#1528,1.);
#809=VECTOR('',#1529,1.);
#810=VECTOR('',#1532,1.);
#811=VECTOR('',#1567,1.);
#812=VECTOR('',#1568,1.);
#813=VECTOR('',#1569,1.);
#814=VECTOR('',#1570,1.);
#815=VECTOR('',#1571,1.);
#816=VECTOR('',#1572,1.);
#817=VECTOR('',#1573,1.);
#818=VECTOR('',#1574,1.);
#819=VECTOR('',#1577,1.);
#820=VECTOR('',#1578,1.);
#821=VECTOR('',#1579,1.);
#822=VECTOR('',#1580,1.);
#823=VECTOR('',#1581,1.);
#824=VECTOR('',#1582,1.);
#825=VECTOR('',#1583,1.);
#826=VECTOR('',#1586,1.);
#827=VECTOR('',#1587,1.);
#828=VECTOR('',#1588,1.);
#829=VECTOR('',#1589,1.);
#830=VECTOR('',#1592,1.);
#831=VECTOR('',#1593,1.);
#832=VECTOR('',#1594,1.);
#833=VECTOR('',#1595,1.);
#834=VECTOR('',#1598,1.);
#835=VECTOR('',#1599,1.);
#836=VECTOR('',#1600,1.);
#837=VECTOR('',#1603,1.);
#838=VECTOR('',#1604,1.);
#839=VECTOR('',#1605,1.);
#840=VECTOR('',#1608,1.);
#841=VECTOR('',#1609,1.);
#842=VECTOR('',#1610,1.);
#843=VECTOR('',#1611,1.);
#844=VECTOR('',#1614,1.);
#845=VECTOR('',#1615,1.);
#846=VECTOR('',#1616,1.);
#847=VECTOR('',#1617,1.);
#848=VECTOR('',#1618,1.);
#849=VECTOR('',#1619,1.);
#850=VECTOR('',#1622,1.);
#851=VECTOR('',#1623,1.);
#852=VECTOR('',#1624,1.);
#853=VECTOR('',#1625,1.);
#854=VECTOR('',#1626,1.);
#855=VECTOR('',#1629,1.);
#856=VECTOR('',#1630,1.);
#857=VECTOR('',#1631,1.);
#858=VECTOR('',#1632,1.);
#859=VECTOR('',#1635,1.);
#860=VECTOR('',#1636,1.);
#861=VECTOR('',#1647,1.);
#862=VECTOR('',#1648,1.);
#863=VECTOR('',#1649,1.);
#864=VECTOR('',#1650,1.);
#865=VECTOR('',#1651,1.);
#866=VECTOR('',#1652,1.);
#867=VECTOR('',#1655,1.);
#868=VECTOR('',#1656,1.);
#869=VECTOR('',#1657,1.);
#870=VECTOR('',#1658,1.);
#871=VECTOR('',#1659,1.);
#872=VECTOR('',#1660,1.);
#873=VECTOR('',#1663,1.);
#874=VECTOR('',#1666,1.);
#875=VECTOR('',#1667,1.);
#876=VECTOR('',#1668,1.);
#877=VECTOR('',#1669,1.);
#878=VECTOR('',#1670,1.);
#879=VECTOR('',#1679,1.);
#880=VECTOR('',#1686,1.);
#881=VECTOR('',#1693,1.);
#882=VECTOR('',#1700,1.);
#883=EDGE_LOOP('',(#67,#68,#69,#70));
#884=EDGE_LOOP('',(#71,#72,#73,#74));
#885=EDGE_LOOP('',(#75,#76,#77,#78));
#886=EDGE_LOOP('',(#79,#80,#81,#82));
#887=EDGE_LOOP('',(#83));
#888=EDGE_LOOP('',(#84));
#889=EDGE_LOOP('',(#85));
#890=EDGE_LOOP('',(#86));
#891=EDGE_LOOP('',(#87));
#892=EDGE_LOOP('',(#88,#89,#90,#91));
#893=EDGE_LOOP('',(#92));
#894=EDGE_LOOP('',(#93));
#895=EDGE_LOOP('',(#94));
#896=EDGE_LOOP('',(#95));
#897=EDGE_LOOP('',(#96));
#898=EDGE_LOOP('',(#97,#98,#99,#100));
#899=EDGE_LOOP('',(#101));
#900=EDGE_LOOP('',(#102));
#901=EDGE_LOOP('',(#103));
#902=EDGE_LOOP('',(#104));
#903=EDGE_LOOP('',(#105));
#904=EDGE_LOOP('',(#106));
#905=EDGE_LOOP('',(#107));
#906=EDGE_LOOP('',(#108));
#907=EDGE_LOOP('',(#109));
#908=EDGE_LOOP('',(#110));
#909=EDGE_LOOP('',(#111,#112,#113,#114));
#910=EDGE_LOOP('',(#115,#116,#117,#118));
#911=EDGE_LOOP('',(#119,#120,#121,#122));
#912=EDGE_LOOP('',(#123,#124,#125,#126));
#913=EDGE_LOOP('',(#127));
#914=EDGE_LOOP('',(#128));
#915=EDGE_LOOP('',(#129));
#916=EDGE_LOOP('',(#130));
#917=EDGE_LOOP('',(#131,#132,#133,#134));
#918=EDGE_LOOP('',(#135,#136,#137,#138));
#919=EDGE_LOOP('',(#139));
#920=EDGE_LOOP('',(#140));
#921=EDGE_LOOP('',(#141));
#922=EDGE_LOOP('',(#142));
#923=EDGE_LOOP('',(#143));
#924=EDGE_LOOP('',(#144));
#925=EDGE_LOOP('',(#145));
#926=EDGE_LOOP('',(#146));
#927=EDGE_LOOP('',(#147,#148,#149,#150));
#928=EDGE_LOOP('',(#151,#152,#153,#154));
#929=EDGE_LOOP('',(#155));
#930=EDGE_LOOP('',(#156));
#931=EDGE_LOOP('',(#157));
#932=EDGE_LOOP('',(#158));
#933=EDGE_LOOP('',(#159,#160,#161,#162));
#934=EDGE_LOOP('',(#163,#164,#165,#166));
#935=EDGE_LOOP('',(#167,#168,#169,#170));
#936=EDGE_LOOP('',(#171,#172,#173,#174));
#937=EDGE_LOOP('',(#175,#176,#177,#178));
#938=EDGE_LOOP('',(#179,#180,#181,#182));
#939=EDGE_LOOP('',(#183,#184,#185,#186));
#940=EDGE_LOOP('',(#187));
#941=EDGE_LOOP('',(#188));
#942=EDGE_LOOP('',(#189));
#943=EDGE_LOOP('',(#190));
#944=EDGE_LOOP('',(#191,#192,#193,#194));
#945=EDGE_LOOP('',(#195,#196,#197,#198));
#946=EDGE_LOOP('',(#199,#200,#201,#202));
#947=EDGE_LOOP('',(#203));
#948=EDGE_LOOP('',(#204));
#949=EDGE_LOOP('',(#205));
#950=EDGE_LOOP('',(#206));
#951=EDGE_LOOP('',(#207));
#952=EDGE_LOOP('',(#208));
#953=EDGE_LOOP('',(#209));
#954=EDGE_LOOP('',(#210));
#955=EDGE_LOOP('',(#211));
#956=EDGE_LOOP('',(#212));
#957=EDGE_LOOP('',(#213));
#958=EDGE_LOOP('',(#214));
#959=EDGE_LOOP('',(#215,#216,#217,#218,#219,#220,#221,#222));
#960=EDGE_LOOP('',(#223,#224,#225,#226,#227,#228,#229,#230));
#961=EDGE_LOOP('',(#231,#232,#233,#234));
#962=EDGE_LOOP('',(#235,#236,#237,#238));
#963=EDGE_LOOP('',(#239,#240,#241,#242));
#964=EDGE_LOOP('',(#243,#244,#245,#246));
#965=EDGE_LOOP('',(#247,#248,#249,#250));
#966=EDGE_LOOP('',(#251,#252,#253,#254,#255,#256,#257,#258));
#967=EDGE_LOOP('',(#259,#260,#261,#262,#263,#264,#265,#266));
#968=EDGE_LOOP('',(#267,#268,#269,#270));
#969=EDGE_LOOP('',(#271,#272,#273,#274));
#970=EDGE_LOOP('',(#275,#276,#277,#278));
#971=EDGE_LOOP('',(#279));
#972=EDGE_LOOP('',(#280));
#973=EDGE_LOOP('',(#281));
#974=EDGE_LOOP('',(#282));
#975=EDGE_LOOP('',(#283,#284,#285,#286));
#976=EDGE_LOOP('',(#287,#288,#289,#290));
#977=EDGE_LOOP('',(#291,#292,#293,#294,#295,#296,#297,#298,#299,#300,#301,
#302));
#978=EDGE_LOOP('',(#303,#304,#305,#306));
#979=EDGE_LOOP('',(#307,#308,#309,#310,#311,#312,#313,#314,#315,#316,#317,
#318));
#980=EDGE_LOOP('',(#319,#320,#321,#322));
#981=EDGE_LOOP('',(#323,#324,#325,#326));
#982=EDGE_LOOP('',(#327,#328,#329,#330));
#983=EDGE_LOOP('',(#331,#332,#333,#334));
#984=EDGE_LOOP('',(#335));
#985=EDGE_LOOP('',(#336,#337,#338,#339));
#986=EDGE_LOOP('',(#340,#341,#342,#343));
#987=EDGE_LOOP('',(#344));
#988=EDGE_LOOP('',(#345,#346,#347,#348));
#989=EDGE_LOOP('',(#349,#350,#351,#352));
#990=EDGE_LOOP('',(#353));
#991=EDGE_LOOP('',(#354,#355,#356,#357));
#992=EDGE_LOOP('',(#358,#359,#360,#361));
#993=EDGE_LOOP('',(#362));
#994=EDGE_LOOP('',(#363,#364,#365,#366));
#995=EDGE_LOOP('',(#367));
#996=EDGE_LOOP('',(#368));
#997=EDGE_LOOP('',(#369));
#998=EDGE_LOOP('',(#370));
#999=EDGE_LOOP('',(#371));
#1000=EDGE_LOOP('',(#372));
#1001=EDGE_LOOP('',(#373));
#1002=EDGE_LOOP('',(#374));
#1003=FACE_BOUND('',#883,.T.);
#1004=FACE_BOUND('',#884,.T.);
#1005=FACE_BOUND('',#885,.T.);
#1006=FACE_BOUND('',#886,.T.);
#1007=FACE_BOUND('',#887,.T.);
#1008=FACE_BOUND('',#888,.T.);
#1009=FACE_BOUND('',#889,.T.);
#1010=FACE_BOUND('',#890,.T.);
#1011=FACE_BOUND('',#891,.T.);
#1012=FACE_BOUND('',#892,.T.);
#1013=FACE_BOUND('',#893,.T.);
#1014=FACE_BOUND('',#894,.T.);
#1015=FACE_BOUND('',#895,.T.);
#1016=FACE_BOUND('',#896,.T.);
#1017=FACE_BOUND('',#897,.T.);
#1018=FACE_BOUND('',#898,.T.);
#1019=FACE_BOUND('',#899,.T.);
#1020=FACE_BOUND('',#900,.T.);
#1021=FACE_BOUND('',#901,.T.);
#1022=FACE_BOUND('',#902,.T.);
#1023=FACE_BOUND('',#903,.T.);
#1024=FACE_BOUND('',#904,.T.);
#1025=FACE_BOUND('',#905,.T.);
#1026=FACE_BOUND('',#906,.T.);
#1027=FACE_BOUND('',#907,.T.);
#1028=FACE_BOUND('',#908,.T.);
#1029=FACE_BOUND('',#909,.T.);
#1030=FACE_BOUND('',#910,.T.);
#1031=FACE_BOUND('',#911,.T.);
#1032=FACE_BOUND('',#912,.T.);
#1033=FACE_BOUND('',#913,.T.);
#1034=FACE_BOUND('',#914,.T.);
#1035=FACE_BOUND('',#915,.T.);
#1036=FACE_BOUND('',#916,.T.);
#1037=FACE_BOUND('',#917,.T.);
#1038=FACE_BOUND('',#918,.T.);
#1039=FACE_BOUND('',#919,.T.);
#1040=FACE_BOUND('',#920,.T.);
#1041=FACE_BOUND('',#921,.T.);
#1042=FACE_BOUND('',#922,.T.);
#1043=FACE_BOUND('',#923,.T.);
#1044=FACE_BOUND('',#924,.T.);
#1045=FACE_BOUND('',#925,.T.);
#1046=FACE_BOUND('',#926,.T.);
#1047=FACE_BOUND('',#927,.T.);
#1048=FACE_BOUND('',#928,.T.);
#1049=FACE_BOUND('',#929,.T.);
#1050=FACE_BOUND('',#930,.T.);
#1051=FACE_BOUND('',#931,.T.);
#1052=FACE_BOUND('',#932,.T.);
#1053=FACE_BOUND('',#933,.T.);
#1054=FACE_BOUND('',#934,.T.);
#1055=FACE_BOUND('',#935,.T.);
#1056=FACE_BOUND('',#936,.T.);
#1057=FACE_BOUND('',#937,.T.);
#1058=FACE_BOUND('',#938,.T.);
#1059=FACE_BOUND('',#939,.T.);
#1060=FACE_BOUND('',#940,.T.);
#1061=FACE_BOUND('',#941,.T.);
#1062=FACE_BOUND('',#942,.T.);
#1063=FACE_BOUND('',#943,.T.);
#1064=FACE_BOUND('',#944,.T.);
#1065=FACE_BOUND('',#945,.T.);
#1066=FACE_BOUND('',#946,.T.);
#1067=FACE_BOUND('',#947,.T.);
#1068=FACE_BOUND('',#948,.T.);
#1069=FACE_BOUND('',#949,.T.);
#1070=FACE_BOUND('',#950,.T.);
#1071=FACE_BOUND('',#951,.T.);
#1072=FACE_BOUND('',#952,.T.);
#1073=FACE_BOUND('',#953,.T.);
#1074=FACE_BOUND('',#954,.T.);
#1075=FACE_BOUND('',#955,.T.);
#1076=FACE_BOUND('',#956,.T.);
#1077=FACE_BOUND('',#957,.T.);
#1078=FACE_BOUND('',#958,.T.);
#1079=FACE_BOUND('',#959,.T.);
#1080=FACE_BOUND('',#960,.T.);
#1081=FACE_BOUND('',#961,.T.);
#1082=FACE_BOUND('',#962,.T.);
#1083=FACE_BOUND('',#963,.T.);
#1084=FACE_BOUND('',#964,.T.);
#1085=FACE_BOUND('',#965,.T.);
#1086=FACE_BOUND('',#966,.T.);
#1087=FACE_BOUND('',#967,.T.);
#1088=FACE_BOUND('',#968,.T.);
#1089=FACE_BOUND('',#969,.T.);
#1090=FACE_BOUND('',#970,.T.);
#1091=FACE_BOUND('',#971,.T.);
#1092=FACE_BOUND('',#972,.T.);
#1093=FACE_BOUND('',#973,.T.);
#1094=FACE_BOUND('',#974,.T.);
#1095=FACE_BOUND('',#975,.T.);
#1096=FACE_BOUND('',#976,.T.);
#1097=FACE_BOUND('',#977,.T.);
#1098=FACE_BOUND('',#978,.T.);
#1099=FACE_BOUND('',#979,.T.);
#1100=FACE_BOUND('',#980,.T.);
#1101=FACE_BOUND('',#981,.T.);
#1102=FACE_BOUND('',#982,.T.);
#1103=FACE_BOUND('',#983,.T.);
#1104=FACE_BOUND('',#984,.T.);
#1105=FACE_BOUND('',#985,.T.);
#1106=FACE_BOUND('',#986,.T.);
#1107=FACE_BOUND('',#987,.T.);
#1108=FACE_BOUND('',#988,.T.);
#1109=FACE_BOUND('',#989,.T.);
#1110=FACE_BOUND('',#990,.T.);
#1111=FACE_BOUND('',#991,.T.);
#1112=FACE_BOUND('',#992,.T.);
#1113=FACE_BOUND('',#993,.T.);
#1114=FACE_BOUND('',#994,.T.);
#1115=FACE_BOUND('',#995,.T.);
#1116=FACE_BOUND('',#996,.T.);
#1117=FACE_BOUND('',#997,.T.);
#1118=FACE_BOUND('',#998,.T.);
#1119=FACE_BOUND('',#999,.T.);
#1120=FACE_BOUND('',#1000,.T.);
#1121=FACE_BOUND('',#1001,.T.);
#1122=FACE_BOUND('',#1002,.T.);
#1123=PLANE('',#1279);
#1124=PLANE('',#1280);
#1125=PLANE('',#1281);
#1126=PLANE('',#1282);
#1127=PLANE('',#1283);
#1128=PLANE('',#1289);
#1129=PLANE('',#1301);
#1130=PLANE('',#1302);
#1131=PLANE('',#1303);
#1132=PLANE('',#1304);
#1133=PLANE('',#1305);
#1134=PLANE('',#1322);
#1135=PLANE('',#1323);
#1136=PLANE('',#1324);
#1137=PLANE('',#1325);
#1138=PLANE('',#1326);
#1139=PLANE('',#1327);
#1140=PLANE('',#1328);
#1141=PLANE('',#1329);
#1142=PLANE('',#1330);
#1143=PLANE('',#1331);
#1144=PLANE('',#1334);
#1145=PLANE('',#1337);
#1146=PLANE('',#1340);
#1147=PLANE('',#1343);
#1148=PLANE('',#1345);
#1149=PLANE('',#1346);
#1150=PLANE('',#1347);
#1151=PLANE('',#1348);
#1152=PLANE('',#1349);
#1153=PLANE('',#1350);
#1154=PLANE('',#1351);
#1155=PLANE('',#1352);
#1156=PLANE('',#1353);
#1157=PLANE('',#1354);
#1158=PLANE('',#1355);
#1159=PLANE('',#1356);
#1160=PLANE('',#1361);
#1161=PLANE('',#1362);
#1162=PLANE('',#1363);
#1163=PLANE('',#1364);
#1164=PLANE('',#1365);
#1165=PLANE('',#1366);
#1166=PLANE('',#1367);
#1167=PLANE('',#1368);
#1168=PLANE('',#1370);
#1169=PLANE('',#1371);
#1170=PLANE('',#1373);
#1171=PLANE('',#1374);
#1172=PLANE('',#1376);
#1173=PLANE('',#1377);
#1174=ADVANCED_FACE('',(#1003),#1123,.T.);
#1175=ADVANCED_FACE('',(#1004),#1124,.F.);
#1176=ADVANCED_FACE('',(#1005),#1125,.F.);
#1177=ADVANCED_FACE('',(#1006),#1126,.T.);
#1178=ADVANCED_FACE('',(#1007,#1008,#1009,#1010,#1011,#1012),#1127,.T.);
#1179=ADVANCED_FACE('',(#1013,#1014,#1015,#1016,#1017,#1018),#1128,.F.);
#1180=ADVANCED_FACE('',(#1019,#1020),#16,.F.);
#1181=ADVANCED_FACE('',(#1021,#1022),#17,.F.);
#1182=ADVANCED_FACE('',(#1023,#1024),#18,.F.);
#1183=ADVANCED_FACE('',(#1025,#1026),#19,.F.);
#1184=ADVANCED_FACE('',(#1027,#1028),#20,.F.);
#1185=ADVANCED_FACE('',(#1029),#1129,.T.);
#1186=ADVANCED_FACE('',(#1030),#1130,.F.);
#1187=ADVANCED_FACE('',(#1031),#1131,.F.);
#1188=ADVANCED_FACE('',(#1032),#1132,.T.);
#1189=ADVANCED_FACE('',(#1033,#1034,#1035,#1036,#1037,#1038),#1133,.F.);
#1190=ADVANCED_FACE('',(#1039,#1040),#21,.F.);
#1191=ADVANCED_FACE('',(#1041,#1042),#22,.F.);
#1192=ADVANCED_FACE('',(#1043,#1044),#23,.F.);
#1193=ADVANCED_FACE('',(#1045,#1046),#24,.F.);
#1194=ADVANCED_FACE('',(#1047),#1134,.T.);
#1195=ADVANCED_FACE('',(#1048),#1135,.T.);
#1196=ADVANCED_FACE('',(#1049,#1050,#1051,#1052,#1053,#1054),#1136,.T.);
#1197=ADVANCED_FACE('',(#1055),#1137,.T.);
#1198=ADVANCED_FACE('',(#1056),#1138,.F.);
#1199=ADVANCED_FACE('',(#1057),#1139,.F.);
#1200=ADVANCED_FACE('',(#1058),#1140,.T.);
#1201=ADVANCED_FACE('',(#1059,#1060,#1061,#1062,#1063,#1064),#1141,.T.);
#1202=ADVANCED_FACE('',(#1065),#1142,.F.);
#1203=ADVANCED_FACE('',(#1066),#1143,.T.);
#1204=ADVANCED_FACE('',(#1067,#1068),#25,.F.);
#1205=ADVANCED_FACE('',(#1069),#1144,.T.);
#1206=ADVANCED_FACE('',(#1070,#1071),#26,.F.);
#1207=ADVANCED_FACE('',(#1072),#1145,.T.);
#1208=ADVANCED_FACE('',(#1073,#1074),#27,.F.);
#1209=ADVANCED_FACE('',(#1075),#1146,.T.);
#1210=ADVANCED_FACE('',(#1076,#1077),#28,.F.);
#1211=ADVANCED_FACE('',(#1078),#1147,.T.);
#1212=ADVANCED_FACE('',(#1079),#1148,.F.);
#1213=ADVANCED_FACE('',(#1080),#1149,.F.);
#1214=ADVANCED_FACE('',(#1081),#1150,.F.);
#1215=ADVANCED_FACE('',(#1082),#1151,.F.);
#1216=ADVANCED_FACE('',(#1083),#1152,.F.);
#1217=ADVANCED_FACE('',(#1084),#1153,.F.);
#1218=ADVANCED_FACE('',(#1085),#1154,.F.);
#1219=ADVANCED_FACE('',(#1086),#1155,.T.);
#1220=ADVANCED_FACE('',(#1087),#1156,.T.);
#1221=ADVANCED_FACE('',(#1088),#1157,.T.);
#1222=ADVANCED_FACE('',(#1089,#1090),#1158,.T.);
#1223=ADVANCED_FACE('',(#1091,#1092,#1093,#1094,#1095,#1096),#1159,.F.);
#1224=ADVANCED_FACE('',(#1097),#1160,.F.);
#1225=ADVANCED_FACE('',(#1098),#1161,.T.);
#1226=ADVANCED_FACE('',(#1099),#1162,.T.);
#1227=ADVANCED_FACE('',(#1100),#1163,.F.);
#1228=ADVANCED_FACE('',(#1101),#1164,.F.);
#1229=ADVANCED_FACE('',(#1102),#1165,.T.);
#1230=ADVANCED_FACE('',(#1103),#1166,.F.);
#1231=ADVANCED_FACE('',(#1104,#1105),#1167,.T.);
#1232=ADVANCED_FACE('',(#1106),#1168,.T.);
#1233=ADVANCED_FACE('',(#1107,#1108),#1169,.T.);
#1234=ADVANCED_FACE('',(#1109),#1170,.F.);
#1235=ADVANCED_FACE('',(#1110,#1111),#1171,.T.);
#1236=ADVANCED_FACE('',(#1112),#1172,.T.);
#1237=ADVANCED_FACE('',(#1113,#1114),#1173,.T.);
#1238=ADVANCED_FACE('',(#1115,#1116),#29,.F.);
#1239=ADVANCED_FACE('',(#1117,#1118),#30,.F.);
#1240=ADVANCED_FACE('',(#1119,#1120),#31,.F.);
#1241=ADVANCED_FACE('',(#1121,#1122),#32,.F.);
#1242=CLOSED_SHELL('',(#1174,#1175,#1176,#1177,#1178,#1179,#1180,#1181,
#1182,#1183,#1184));
#1243=CLOSED_SHELL('',(#1185,#1186,#1187,#1188,#1189,#1190,#1191,#1192,
#1193,#1194,#1195,#1196,#1197,#1198,#1199,#1200,#1201,#1202,#1203,#1204,
#1205,#1206,#1207,#1208,#1209,#1210,#1211));
#1244=CLOSED_SHELL('',(#1212,#1213,#1214,#1215,#1216,#1217,#1218,#1219,
#1220,#1221,#1222,#1223,#1224,#1225,#1226,#1227,#1228,#1229,#1230,#1231,
#1232,#1233,#1234,#1235,#1236,#1237,#1238,#1239,#1240,#1241));
#1245=STYLED_ITEM('',(#1248),#1269);
#1246=STYLED_ITEM('',(#1249),#1270);
#1247=STYLED_ITEM('',(#1250),#1271);
#1248=PRESENTATION_STYLE_ASSIGNMENT((#1251));
#1249=PRESENTATION_STYLE_ASSIGNMENT((#1252));
#1250=PRESENTATION_STYLE_ASSIGNMENT((#1253));
#1251=SURFACE_STYLE_USAGE(.BOTH.,#1254);
#1252=SURFACE_STYLE_USAGE(.BOTH.,#1255);
#1253=SURFACE_STYLE_USAGE(.BOTH.,#1256);
#1254=SURFACE_SIDE_STYLE('',(#1257));
#1255=SURFACE_SIDE_STYLE('',(#1258));
#1256=SURFACE_SIDE_STYLE('',(#1259));
#1257=SURFACE_STYLE_FILL_AREA(#1260);
#1258=SURFACE_STYLE_FILL_AREA(#1261);
#1259=SURFACE_STYLE_FILL_AREA(#1262);
#1260=FILL_AREA_STYLE('',(#1263));
#1261=FILL_AREA_STYLE('',(#1264));
#1262=FILL_AREA_STYLE('',(#1265));
#1263=FILL_AREA_STYLE_COLOUR('',#1266);
#1264=FILL_AREA_STYLE_COLOUR('',#1267);
#1265=FILL_AREA_STYLE_COLOUR('',#1268);
#1266=COLOUR_RGB('',0.231372549019608,0.380392156862745,0.705882352941177);
#1267=COLOUR_RGB('',0.615686274509804,0.811764705882353,0.929411764705882);
#1268=COLOUR_RGB('',0.647058823529412,0.647058823529412,0.647058823529412);
#1269=MANIFOLD_SOLID_BREP('Part 3',#1242);
#1270=MANIFOLD_SOLID_BREP('Part 1',#1243);
#1271=MANIFOLD_SOLID_BREP('Part 2',#1244);
#1272=SHAPE_DEFINITION_REPRESENTATION(#2070,#1275);
#1273=SHAPE_DEFINITION_REPRESENTATION(#2071,#1276);
#1274=SHAPE_DEFINITION_REPRESENTATION(#2072,#1277);
#1275=SHAPE_REPRESENTATION('Part 3',(#1278),#2055);
#1276=SHAPE_REPRESENTATION('Part 1',(#1300),#2056);
#1277=SHAPE_REPRESENTATION('Part 2',(#1344),#2057);
#1278=AXIS2_PLACEMENT_3D('',#1713,#1383,#1384);
#1279=AXIS2_PLACEMENT_3D('',#1714,#1385,#1386);
#1280=AXIS2_PLACEMENT_3D('',#1723,#1391,#1392);
#1281=AXIS2_PLACEMENT_3D('',#1729,#1396,#1397);
#1282=AXIS2_PLACEMENT_3D('',#1735,#1401,#1402);
#1283=AXIS2_PLACEMENT_3D('',#1738,#1405,#1406);
#1284=AXIS2_PLACEMENT_3D('',#1739,#1407,#1408);
#1285=AXIS2_PLACEMENT_3D('',#1741,#1409,#1410);
#1286=AXIS2_PLACEMENT_3D('',#1743,#1411,#1412);
#1287=AXIS2_PLACEMENT_3D('',#1745,#1413,#1414);
#1288=AXIS2_PLACEMENT_3D('',#1747,#1415,#1416);
#1289=AXIS2_PLACEMENT_3D('',#1749,#1417,#1418);
#1290=AXIS2_PLACEMENT_3D('',#1750,#1419,#1420);
#1291=AXIS2_PLACEMENT_3D('',#1752,#1421,#1422);
#1292=AXIS2_PLACEMENT_3D('',#1754,#1423,#1424);
#1293=AXIS2_PLACEMENT_3D('',#1756,#1425,#1426);
#1294=AXIS2_PLACEMENT_3D('',#1758,#1427,#1428);
#1295=AXIS2_PLACEMENT_3D('',#1760,#1429,#1430);
#1296=AXIS2_PLACEMENT_3D('',#1761,#1431,#1432);
#1297=AXIS2_PLACEMENT_3D('',#1762,#1433,#1434);
#1298=AXIS2_PLACEMENT_3D('',#1763,#1435,#1436);
#1299=AXIS2_PLACEMENT_3D('',#1764,#1437,#1438);
#1300=AXIS2_PLACEMENT_3D('',#1765,#1439,#1440);
#1301=AXIS2_PLACEMENT_3D('',#1766,#1441,#1442);
#1302=AXIS2_PLACEMENT_3D('',#1775,#1447,#1448);
#1303=AXIS2_PLACEMENT_3D('',#1781,#1452,#1453);
#1304=AXIS2_PLACEMENT_3D('',#1787,#1457,#1458);
#1305=AXIS2_PLACEMENT_3D('',#1790,#1461,#1462);
#1306=AXIS2_PLACEMENT_3D('',#1791,#1463,#1464);
#1307=AXIS2_PLACEMENT_3D('',#1793,#1465,#1466);
#1308=AXIS2_PLACEMENT_3D('',#1795,#1467,#1468);
#1309=AXIS2_PLACEMENT_3D('',#1797,#1469,#1470);
#1310=AXIS2_PLACEMENT_3D('',#1815,#1479,#1480);
#1311=AXIS2_PLACEMENT_3D('',#1816,#1481,#1482);
#1312=AXIS2_PLACEMENT_3D('',#1818,#1483,#1484);
#1313=AXIS2_PLACEMENT_3D('',#1820,#1485,#1486);
#1314=AXIS2_PLACEMENT_3D('',#1821,#1487,#1488);
#1315=AXIS2_PLACEMENT_3D('',#1823,#1489,#1490);
#1316=AXIS2_PLACEMENT_3D('',#1825,#1491,#1492);
#1317=AXIS2_PLACEMENT_3D('',#1826,#1493,#1494);
#1318=AXIS2_PLACEMENT_3D('',#1828,#1495,#1496);
#1319=AXIS2_PLACEMENT_3D('',#1830,#1497,#1498);
#1320=AXIS2_PLACEMENT_3D('',#1831,#1499,#1500);
#1321=AXIS2_PLACEMENT_3D('',#1833,#1501,#1502);
#1322=AXIS2_PLACEMENT_3D('',#1835,#1503,#1504);
#1323=AXIS2_PLACEMENT_3D('',#1841,#1508,#1509);
#1324=AXIS2_PLACEMENT_3D('',#1847,#1513,#1514);
#1325=AXIS2_PLACEMENT_3D('',#1850,#1517,#1518);
#1326=AXIS2_PLACEMENT_3D('',#1856,#1522,#1523);
#1327=AXIS2_PLACEMENT_3D('',#1860,#1526,#1527);
#1328=AXIS2_PLACEMENT_3D('',#1864,#1530,#1531);
#1329=AXIS2_PLACEMENT_3D('',#1866,#1533,#1534);
#1330=AXIS2_PLACEMENT_3D('',#1867,#1535,#1536);
#1331=AXIS2_PLACEMENT_3D('',#1868,#1537,#1538);
#1332=AXIS2_PLACEMENT_3D('',#1869,#1539,#1540);
#1333=AXIS2_PLACEMENT_3D('',#1870,#1541,#1542);
#1334=AXIS2_PLACEMENT_3D('',#1872,#1543,#1544);
#1335=AXIS2_PLACEMENT_3D('',#1873,#1545,#1546);
#1336=AXIS2_PLACEMENT_3D('',#1874,#1547,#1548);
#1337=AXIS2_PLACEMENT_3D('',#1876,#1549,#1550);
#1338=AXIS2_PLACEMENT_3D('',#1877,#1551,#1552);
#1339=AXIS2_PLACEMENT_3D('',#1878,#1553,#1554);
#1340=AXIS2_PLACEMENT_3D('',#1880,#1555,#1556);
#1341=AXIS2_PLACEMENT_3D('',#1881,#1557,#1558);
#1342=AXIS2_PLACEMENT_3D('',#1882,#1559,#1560);
#1343=AXIS2_PLACEMENT_3D('',#1884,#1561,#1562);
#1344=AXIS2_PLACEMENT_3D('',#1885,#1563,#1564);
#1345=AXIS2_PLACEMENT_3D('',#1886,#1565,#1566);
#1346=AXIS2_PLACEMENT_3D('',#1903,#1575,#1576);
#1347=AXIS2_PLACEMENT_3D('',#1917,#1584,#1585);
#1348=AXIS2_PLACEMENT_3D('',#1926,#1590,#1591);
#1349=AXIS2_PLACEMENT_3D('',#1935,#1596,#1597);
#1350=AXIS2_PLACEMENT_3D('',#1941,#1601,#1602);
#1351=AXIS2_PLACEMENT_3D('',#1947,#1606,#1607);
#1352=AXIS2_PLACEMENT_3D('',#1956,#1612,#1613);
#1353=AXIS2_PLACEMENT_3D('',#1967,#1620,#1621);
#1354=AXIS2_PLACEMENT_3D('',#1975,#1627,#1628);
#1355=AXIS2_PLACEMENT_3D('',#1984,#1633,#1634);
#1356=AXIS2_PLACEMENT_3D('',#1987,#1637,#1638);
#1357=AXIS2_PLACEMENT_3D('',#1988,#1639,#1640);
#1358=AXIS2_PLACEMENT_3D('',#1990,#1641,#1642);
#1359=AXIS2_PLACEMENT_3D('',#1992,#1643,#1644);
#1360=AXIS2_PLACEMENT_3D('',#1994,#1645,#1646);
#1361=AXIS2_PLACEMENT_3D('',#2006,#1653,#1654);
#1362=AXIS2_PLACEMENT_3D('',#2015,#1661,#1662);
#1363=AXIS2_PLACEMENT_3D('',#2017,#1664,#1665);
#1364=AXIS2_PLACEMENT_3D('',#2025,#1671,#1672);
#1365=AXIS2_PLACEMENT_3D('',#2026,#1673,#1674);
#1366=AXIS2_PLACEMENT_3D('',#2027,#1675,#1676);
#1367=AXIS2_PLACEMENT_3D('',#2028,#1677,#1678);
#1368=AXIS2_PLACEMENT_3D('',#2030,#1680,#1681);
#1369=AXIS2_PLACEMENT_3D('',#2031,#1682,#1683);
#1370=AXIS2_PLACEMENT_3D('',#2033,#1684,#1685);
#1371=AXIS2_PLACEMENT_3D('',#2035,#1687,#1688);
#1372=AXIS2_PLACEMENT_3D('',#2036,#1689,#1690);
#1373=AXIS2_PLACEMENT_3D('',#2038,#1691,#1692);
#1374=AXIS2_PLACEMENT_3D('',#2040,#1694,#1695);
#1375=AXIS2_PLACEMENT_3D('',#2041,#1696,#1697);
#1376=AXIS2_PLACEMENT_3D('',#2043,#1698,#1699);
#1377=AXIS2_PLACEMENT_3D('',#2045,#1701,#1702);
#1378=AXIS2_PLACEMENT_3D('',#2046,#1703,#1704);
#1379=AXIS2_PLACEMENT_3D('',#2048,#1705,#1706);
#1380=AXIS2_PLACEMENT_3D('',#2049,#1707,#1708);
#1381=AXIS2_PLACEMENT_3D('',#2050,#1709,#1710);
#1382=AXIS2_PLACEMENT_3D('',#2051,#1711,#1712);
#1383=DIRECTION('',(0.,0.,1.));
#1384=DIRECTION('',(1.,0.,0.));
#1385=DIRECTION('',(0.,-1.,0.));
#1386=DIRECTION('',(0.,0.,-1.));
#1387=DIRECTION('',(1.,0.,0.));
#1388=DIRECTION('',(0.,0.,1.));
#1389=DIRECTION('',(1.,0.,0.));
#1390=DIRECTION('',(0.,0.,1.));
#1391=DIRECTION('',(1.,0.,0.));
#1392=DIRECTION('',(0.,0.,-1.));
#1393=DIRECTION('',(0.,1.,0.));
#1394=DIRECTION('',(0.,0.,1.));
#1395=DIRECTION('',(0.,1.,0.));
#1396=DIRECTION('',(0.,-1.,0.));
#1397=DIRECTION('',(0.,0.,-1.));
#1398=DIRECTION('',(1.,0.,0.));
#1399=DIRECTION('',(0.,0.,1.));
#1400=DIRECTION('',(1.,0.,0.));
#1401=DIRECTION('',(1.,0.,0.));
#1402=DIRECTION('',(0.,0.,-1.));
#1403=DIRECTION('',(0.,1.,0.));
#1404=DIRECTION('',(0.,1.,0.));
#1405=DIRECTION('',(0.,0.,-1.));
#1406=DIRECTION('',(1.,0.,0.));
#1407=DIRECTION('',(0.,0.,-1.));
#1408=DIRECTION('',(-1.,0.,0.));
#1409=DIRECTION('',(0.,0.,-1.));
#1410=DIRECTION('',(-1.,0.,0.));
#1411=DIRECTION('',(0.,0.,-1.));
#1412=DIRECTION('',(-1.,0.,0.));
#1413=DIRECTION('',(0.,0.,-1.));
#1414=DIRECTION('',(-1.,0.,0.));
#1415=DIRECTION('',(0.,0.,-1.));
#1416=DIRECTION('',(-1.,0.,0.));
#1417=DIRECTION('',(0.,0.,-1.));
#1418=DIRECTION('',(1.,0.,0.));
#1419=DIRECTION('',(0.,0.,-1.));
#1420=DIRECTION('',(-1.,0.,0.));
#1421=DIRECTION('',(0.,0.,-1.));
#1422=DIRECTION('',(-1.,0.,0.));
#1423=DIRECTION('',(0.,0.,-1.));
#1424=DIRECTION('',(-1.,0.,0.));
#1425=DIRECTION('',(0.,0.,-1.));
#1426=DIRECTION('',(-1.,0.,0.));
#1427=DIRECTION('',(0.,0.,-1.));
#1428=DIRECTION('',(-1.,0.,0.));
#1429=DIRECTION('',(0.,0.,-1.));
#1430=DIRECTION('',(-1.,0.,0.));
#1431=DIRECTION('',(0.,0.,-1.));
#1432=DIRECTION('',(-1.,0.,0.));
#1433=DIRECTION('',(0.,0.,-1.));
#1434=DIRECTION('',(-1.,0.,0.));
#1435=DIRECTION('',(0.,0.,-1.));
#1436=DIRECTION('',(-1.,0.,0.));
#1437=DIRECTION('',(0.,0.,-1.));
#1438=DIRECTION('',(-1.,0.,0.));
#1439=DIRECTION('',(0.,0.,1.));
#1440=DIRECTION('',(1.,0.,0.));
#1441=DIRECTION('',(1.64688937592735E-16,-1.,0.));
#1442=DIRECTION('',(1.,1.64688937592735E-16,0.));
#1443=DIRECTION('',(0.,0.,-1.));
#1444=DIRECTION('',(1.,1.64688937592735E-16,0.));
#1445=DIRECTION('',(0.,0.,-1.));
#1446=DIRECTION('',(-1.,-1.64688937592735E-16,0.));
#1447=DIRECTION('',(1.,5.55111512312578E-16,0.));
#1448=DIRECTION('',(-5.55111512312578E-16,1.,0.));
#1449=DIRECTION('',(-5.55111512312578E-16,1.,0.));
#1450=DIRECTION('',(0.,0.,-1.));
#1451=DIRECTION('',(5.55111512312578E-16,-1.,0.));
#1452=DIRECTION('',(0.,-1.,0.));
#1453=DIRECTION('',(0.,0.,-1.));
#1454=DIRECTION('',(1.,0.,0.));
#1455=DIRECTION('',(0.,0.,-1.));
#1456=DIRECTION('',(-1.,0.,0.));
#1457=DIRECTION('',(1.,0.,0.));
#1458=DIRECTION('',(0.,0.,-1.));
#1459=DIRECTION('',(0.,1.,0.));
#1460=DIRECTION('',(0.,-1.,0.));
#1461=DIRECTION('',(0.,0.,1.));
#1462=DIRECTION('',(1.,0.,0.));
#1463=DIRECTION('',(0.,0.,-1.));
#1464=DIRECTION('',(-1.,0.,0.));
#1465=DIRECTION('',(0.,0.,-1.));
#1466=DIRECTION('',(-1.,0.,0.));
#1467=DIRECTION('',(0.,0.,-1.));
#1468=DIRECTION('',(-1.,0.,0.));
#1469=DIRECTION('',(0.,0.,-1.));
#1470=DIRECTION('',(-1.,0.,0.));
#1471=DIRECTION('',(1.,0.,0.));
#1472=DIRECTION('',(0.,1.,0.));
#1473=DIRECTION('',(-1.,0.,0.));
#1474=DIRECTION('',(3.08395284618099E-16,1.,0.));
#1475=DIRECTION('',(0.,-1.,0.));
#1476=DIRECTION('',(1.,0.,0.));
#1477=DIRECTION('',(0.,-1.,0.));
#1478=DIRECTION('',(1.,0.,0.));
#1479=DIRECTION('',(0.,0.,-1.));
#1480=DIRECTION('',(-1.,0.,0.));
#1481=DIRECTION('',(0.,0.,1.));
#1482=DIRECTION('',(1.,0.,0.));
#1483=DIRECTION('',(0.,0.,-1.));
#1484=DIRECTION('',(-1.,0.,0.));
#1485=DIRECTION('',(0.,0.,-1.));
#1486=DIRECTION('',(-1.,0.,0.));
#1487=DIRECTION('',(0.,0.,1.));
#1488=DIRECTION('',(1.,0.,0.));
#1489=DIRECTION('',(0.,0.,-1.));
#1490=DIRECTION('',(-1.,0.,0.));
#1491=DIRECTION('',(0.,0.,-1.));
#1492=DIRECTION('',(-1.,0.,0.));
#1493=DIRECTION('',(0.,0.,1.));
#1494=DIRECTION('',(1.,0.,0.));
#1495=DIRECTION('',(0.,0.,-1.));
#1496=DIRECTION('',(-1.,0.,0.));
#1497=DIRECTION('',(0.,0.,-1.));
#1498=DIRECTION('',(-1.,0.,0.));
#1499=DIRECTION('',(0.,0.,1.));
#1500=DIRECTION('',(1.,0.,0.));
#1501=DIRECTION('',(0.,0.,-1.));
#1502=DIRECTION('',(-1.,0.,0.));
#1503=DIRECTION('',(0.,1.,0.));
#1504=DIRECTION('',(0.,0.,1.));
#1505=DIRECTION('',(0.,0.,-1.));
#1506=DIRECTION('',(1.,0.,0.));
#1507=DIRECTION('',(0.,0.,-1.));
#1508=DIRECTION('',(0.,-1.,0.));
#1509=DIRECTION('',(0.,0.,-1.));
#1510=DIRECTION('',(0.,0.,-1.));
#1511=DIRECTION('',(-1.,0.,0.));
#1512=DIRECTION('',(0.,0.,-1.));
#1513=DIRECTION('',(0.,0.,1.));
#1514=DIRECTION('',(1.,0.,0.));
#1515=DIRECTION('',(3.08395284618099E-16,1.,0.));
#1516=DIRECTION('',(0.,1.,0.));
#1517=DIRECTION('',(1.,0.,0.));
#1518=DIRECTION('',(0.,0.,-1.));
#1519=DIRECTION('',(0.,0.,-1.));
#1520=DIRECTION('',(0.,-1.,0.));
#1521=DIRECTION('',(0.,0.,-1.));
#1522=DIRECTION('',(0.,1.,0.));
#1523=DIRECTION('',(0.,0.,1.));
#1524=DIRECTION('',(0.,0.,-1.));
#1525=DIRECTION('',(1.,0.,0.));
#1526=DIRECTION('',(1.,0.,0.));
#1527=DIRECTION('',(0.,0.,-1.));
#1528=DIRECTION('',(0.,0.,-1.));
#1529=DIRECTION('',(0.,-1.,0.));
#1530=DIRECTION('',(0.,1.,0.));
#1531=DIRECTION('',(0.,0.,1.));
#1532=DIRECTION('',(1.,0.,0.));
#1533=DIRECTION('',(0.,0.,-1.));
#1534=DIRECTION('',(1.,0.,0.));
#1535=DIRECTION('',(-1.,0.,0.));
#1536=DIRECTION('',(0.,0.,1.));
#1537=DIRECTION('',(-1.,3.08395284618099E-16,0.));
#1538=DIRECTION('',(-3.08395284618099E-16,-1.,0.));
#1539=DIRECTION('',(0.,0.,-1.));
#1540=DIRECTION('',(-1.,0.,0.));
#1541=DIRECTION('',(0.,0.,-1.));
#1542=DIRECTION('',(-1.,0.,0.));
#1543=DIRECTION('',(0.,0.,-1.));
#1544=DIRECTION('',(1.,0.,0.));
#1545=DIRECTION('',(0.,0.,-1.));
#1546=DIRECTION('',(-1.,0.,0.));
#1547=DIRECTION('',(0.,0.,-1.));
#1548=DIRECTION('',(-1.,0.,0.));
#1549=DIRECTION('',(0.,0.,-1.));
#1550=DIRECTION('',(1.,0.,0.));
#1551=DIRECTION('',(0.,0.,-1.));
#1552=DIRECTION('',(-1.,0.,0.));
#1553=DIRECTION('',(0.,0.,-1.));
#1554=DIRECTION('',(-1.,0.,0.));
#1555=DIRECTION('',(0.,0.,-1.));
#1556=DIRECTION('',(1.,0.,0.));
#1557=DIRECTION('',(0.,0.,-1.));
#1558=DIRECTION('',(-1.,0.,0.));
#1559=DIRECTION('',(0.,0.,-1.));
#1560=DIRECTION('',(-1.,0.,0.));
#1561=DIRECTION('',(0.,0.,-1.));
#1562=DIRECTION('',(1.,0.,0.));
#1563=DIRECTION('',(0.,0.,1.));
#1564=DIRECTION('',(1.,0.,0.));
#1565=DIRECTION('',(-1.,0.,0.));
#1566=DIRECTION('',(0.,0.,1.));
#1567=DIRECTION('',(0.,0.,-1.));
#1568=DIRECTION('',(0.,1.,0.));
#1569=DIRECTION('',(0.,0.,-1.));
#1570=DIRECTION('',(0.,1.,0.));
#1571=DIRECTION('',(0.,0.,-1.));
#1572=DIRECTION('',(0.,1.,0.));
#1573=DIRECTION('',(0.,0.,-1.));
#1574=DIRECTION('',(0.,1.,0.));
#1575=DIRECTION('',(0.,1.,0.));
#1576=DIRECTION('',(0.,0.,1.));
#1577=DIRECTION('',(1.,0.,0.));
#1578=DIRECTION('',(0.,0.,-1.));
#1579=DIRECTION('',(1.,0.,0.));
#1580=DIRECTION('',(0.,0.,-1.));
#1581=DIRECTION('',(1.,0.,0.));
#1582=DIRECTION('',(0.,0.,-1.));
#1583=DIRECTION('',(1.,0.,0.));
#1584=DIRECTION('',(0.,0.,-1.));
#1585=DIRECTION('',(1.,0.,0.));
#1586=DIRECTION('',(2.9738116731031E-16,1.,0.));
#1587=DIRECTION('',(1.,0.,0.));
#1588=DIRECTION('',(-1.77920356510442E-16,1.,0.));
#1589=DIRECTION('',(1.,0.,0.));
#1590=DIRECTION('',(0.,0.,-1.));
#1591=DIRECTION('',(1.,0.,0.));
#1592=DIRECTION('',(1.,0.,0.));
#1593=DIRECTION('',(2.9738116731031E-16,1.,0.));
#1594=DIRECTION('',(1.,0.,0.));
#1595=DIRECTION('',(0.,1.,0.));
#1596=DIRECTION('',(0.,0.,-1.));
#1597=DIRECTION('',(1.,0.,0.));
#1598=DIRECTION('',(-1.,0.,0.));
#1599=DIRECTION('',(0.,1.,0.));
#1600=DIRECTION('',(-1.,0.,0.));
#1601=DIRECTION('',(0.,0.,-1.));
#1602=DIRECTION('',(1.,0.,0.));
#1603=DIRECTION('',(0.,1.,0.));
#1604=DIRECTION('',(1.,0.,0.));
#1605=DIRECTION('',(2.9738116731031E-16,1.,0.));
#1606=DIRECTION('',(0.,1.,0.));
#1607=DIRECTION('',(0.,0.,1.));
#1608=DIRECTION('',(1.,0.,0.));
#1609=DIRECTION('',(0.,0.,-1.));
#1610=DIRECTION('',(1.,0.,0.));
#1611=DIRECTION('',(0.,0.,-1.));
#1612=DIRECTION('',(0.,1.,0.));
#1613=DIRECTION('',(0.,0.,1.));
#1614=DIRECTION('',(1.,0.,0.));
#1615=DIRECTION('',(0.,0.,-1.));
#1616=DIRECTION('',(0.,0.,-1.));
#1617=DIRECTION('',(1.,0.,0.));
#1618=DIRECTION('',(1.,0.,0.));
#1619=DIRECTION('',(0.,0.,-1.));
#1620=DIRECTION('',(-1.,-1.77920356510442E-16,0.));
#1621=DIRECTION('',(1.77920356510442E-16,-1.,0.));
#1622=DIRECTION('',(0.,0.,-1.));
#1623=DIRECTION('',(-1.77920356510442E-16,1.,0.));
#1624=DIRECTION('',(-1.77920356510442E-16,1.,0.));
#1625=DIRECTION('',(-1.77920356510442E-16,1.,0.));
#1626=DIRECTION('',(0.,0.,-1.));
#1627=DIRECTION('',(0.,1.,0.));
#1628=DIRECTION('',(0.,0.,1.));
#1629=DIRECTION('',(1.,0.,0.));
#1630=DIRECTION('',(0.,0.,-1.));
#1631=DIRECTION('',(1.,0.,0.));
#1632=DIRECTION('',(0.,0.,-1.));
#1633=DIRECTION('',(0.,0.,1.));
#1634=DIRECTION('',(1.,0.,0.));
#1635=DIRECTION('',(0.,1.,0.));
#1636=DIRECTION('',(5.78241158658936E-17,1.,0.));
#1637=DIRECTION('',(0.,0.,1.));
#1638=DIRECTION('',(1.,0.,0.));
#1639=DIRECTION('',(0.,0.,1.));
#1640=DIRECTION('',(1.,0.,0.));
#1641=DIRECTION('',(0.,0.,1.));
#1642=DIRECTION('',(1.,0.,0.));
#1643=DIRECTION('',(0.,0.,1.));
#1644=DIRECTION('',(1.,0.,0.));
#1645=DIRECTION('',(0.,0.,1.));
#1646=DIRECTION('',(1.,0.,0.));
#1647=DIRECTION('',(0.,1.,0.));
#1648=DIRECTION('',(5.78241158658936E-17,1.,0.));
#1649=DIRECTION('',(0.,1.,0.));
#1650=DIRECTION('',(1.,0.,0.));
#1651=DIRECTION('',(2.9738116731031E-16,1.,0.));
#1652=DIRECTION('',(1.,0.,0.));
#1653=DIRECTION('',(-1.,0.,0.));
#1654=DIRECTION('',(0.,0.,1.));
#1655=DIRECTION('',(0.,0.,-1.));
#1656=DIRECTION('',(0.,1.,0.));
#1657=DIRECTION('',(0.,0.,-1.));
#1658=DIRECTION('',(0.,0.,-1.));
#1659=DIRECTION('',(0.,1.,0.));
#1660=DIRECTION('',(0.,0.,-1.));
#1661=DIRECTION('',(0.,1.,0.));
#1662=DIRECTION('',(0.,0.,1.));
#1663=DIRECTION('',(0.,0.,-1.));
#1664=DIRECTION('',(-1.,2.9738116731031E-16,0.));
#1665=DIRECTION('',(-2.9738116731031E-16,-1.,0.));
#1666=DIRECTION('',(2.9738116731031E-16,1.,0.));
#1667=DIRECTION('',(0.,0.,-1.));
#1668=DIRECTION('',(0.,0.,-1.));
#1669=DIRECTION('',(2.9738116731031E-16,1.,0.));
#1670=DIRECTION('',(0.,0.,-1.));
#1671=DIRECTION('',(0.,1.,0.));
#1672=DIRECTION('',(0.,0.,1.));
#1673=DIRECTION('',(-1.,5.78241158658936E-17,0.));
#1674=DIRECTION('',(-5.78241158658936E-17,-1.,0.));
#1675=DIRECTION('',(-1.,0.,0.));
#1676=DIRECTION('',(0.,0.,1.));
#1677=DIRECTION('',(0.,1.,0.));
#1678=DIRECTION('',(0.,0.,1.));
#1679=DIRECTION('',(1.,0.,0.));
#1680=DIRECTION('',(0.,0.,1.));
#1681=DIRECTION('',(1.,0.,0.));
#1682=DIRECTION('',(0.,0.,1.));
#1683=DIRECTION('',(1.,0.,0.));
#1684=DIRECTION('',(0.,-1.,0.));
#1685=DIRECTION('',(0.,0.,-1.));
#1686=DIRECTION('',(-1.,0.,0.));
#1687=DIRECTION('',(0.,0.,1.));
#1688=DIRECTION('',(1.,0.,0.));
#1689=DIRECTION('',(0.,0.,1.));
#1690=DIRECTION('',(1.,0.,0.));
#1691=DIRECTION('',(0.,-1.,0.));
#1692=DIRECTION('',(0.,0.,-1.));
#1693=DIRECTION('',(-1.,0.,0.));
#1694=DIRECTION('',(0.,0.,1.));
#1695=DIRECTION('',(1.,0.,0.));
#1696=DIRECTION('',(0.,0.,1.));
#1697=DIRECTION('',(1.,0.,0.));
#1698=DIRECTION('',(0.,1.,0.));
#1699=DIRECTION('',(0.,0.,1.));
#1700=DIRECTION('',(1.,0.,0.));
#1701=DIRECTION('',(0.,0.,1.));
#1702=DIRECTION('',(1.,0.,0.));
#1703=DIRECTION('',(0.,0.,1.));
#1704=DIRECTION('',(1.,0.,0.));
#1705=DIRECTION('',(0.,0.,1.));
#1706=DIRECTION('',(1.,0.,0.));
#1707=DIRECTION('',(0.,0.,1.));
#1708=DIRECTION('',(1.,0.,0.));
#1709=DIRECTION('',(0.,0.,1.));
#1710=DIRECTION('',(1.,0.,0.));
#1711=DIRECTION('',(0.,0.,1.));
#1712=DIRECTION('',(1.,0.,0.));
#1713=CARTESIAN_POINT('',(0.,0.,0.));
#1714=CARTESIAN_POINT('',(-0.0206345496326685,0.0477460491657257,-0.005));
#1715=CARTESIAN_POINT('',(-0.0206345496326685,0.0477460491657257,0.));
#1716=CARTESIAN_POINT('',(-0.0606345496326685,0.0477460491657257,0.));
#1717=CARTESIAN_POINT('',(0.0193654503673315,0.0477460491657257,0.));
#1718=CARTESIAN_POINT('',(-0.0606345496326685,0.0477460491657257,-0.005));
#1719=CARTESIAN_POINT('',(-0.0606345496326685,0.0477460491657257,-0.005));
#1720=CARTESIAN_POINT('',(-0.0206345496326685,0.0477460491657257,-0.005));
#1721=CARTESIAN_POINT('',(0.0193654503673315,0.0477460491657257,-0.005));
#1722=CARTESIAN_POINT('',(0.0193654503673315,0.0477460491657257,-0.005));
#1723=CARTESIAN_POINT('',(-0.0606345496326685,0.0702460491657257,-0.005));
#1724=CARTESIAN_POINT('',(-0.0606345496326685,0.0702460491657257,0.));
#1725=CARTESIAN_POINT('',(-0.0606345496326685,0.0927460491657257,0.));
#1726=CARTESIAN_POINT('',(-0.0606345496326685,0.0927460491657257,-0.005));
#1727=CARTESIAN_POINT('',(-0.0606345496326685,0.0927460491657257,-0.005));
#1728=CARTESIAN_POINT('',(-0.0606345496326685,0.0702460491657257,-0.005));
#1729=CARTESIAN_POINT('',(-0.0206345496326685,0.0927460491657257,-0.005));
#1730=CARTESIAN_POINT('',(-0.0206345496326685,0.0927460491657257,0.));
#1731=CARTESIAN_POINT('',(0.0193654503673315,0.0927460491657257,0.));
#1732=CARTESIAN_POINT('',(0.0193654503673315,0.0927460491657257,-0.005));
#1733=CARTESIAN_POINT('',(0.0193654503673315,0.0927460491657257,-0.005));
#1734=CARTESIAN_POINT('',(-0.0206345496326685,0.0927460491657257,-0.005));
#1735=CARTESIAN_POINT('',(0.0193654503673315,0.0702460491657257,-0.005));
#1736=CARTESIAN_POINT('',(0.0193654503673315,0.0702460491657257,0.));
#1737=CARTESIAN_POINT('',(0.0193654503673315,0.0702460491657257,-0.005));
#1738=CARTESIAN_POINT('',(-0.0103862204576108,0.0338175287470222,-0.005));
#1739=CARTESIAN_POINT('',(0.0168654503673315,0.0502460491657257,-0.005));
#1740=CARTESIAN_POINT('',(0.0158654503673315,0.0502460491657257,-0.005));
#1741=CARTESIAN_POINT('',(-0.0581345496326685,0.0902460491657257,-0.005));
#1742=CARTESIAN_POINT('',(-0.0591345496326685,0.0902460491657257,-0.005));
#1743=CARTESIAN_POINT('',(0.0168654503673315,0.0902460491657257,-0.005));
#1744=CARTESIAN_POINT('',(0.0158654503673315,0.0902460491657257,-0.005));
#1745=CARTESIAN_POINT('',(-0.0066345496326685,0.0702460491657257,-0.005));
#1746=CARTESIAN_POINT('',(-0.0101345496326685,0.0702460491657257,-0.005));
#1747=CARTESIAN_POINT('',(-0.0581345496326685,0.0502460491657257,-0.005));
#1748=CARTESIAN_POINT('',(-0.0591345496326685,0.0502460491657257,-0.005));
#1749=CARTESIAN_POINT('',(-0.0103862204576108,0.0338175287470222,0.));
#1750=CARTESIAN_POINT('',(0.0168654503673315,0.0502460491657257,0.));
#1751=CARTESIAN_POINT('',(0.0158654503673315,0.0502460491657257,0.));
#1752=CARTESIAN_POINT('',(-0.0581345496326685,0.0902460491657257,0.));
#1753=CARTESIAN_POINT('',(-0.0591345496326685,0.0902460491657257,0.));
#1754=CARTESIAN_POINT('',(0.0168654503673315,0.0902460491657257,0.));
#1755=CARTESIAN_POINT('',(0.0158654503673315,0.0902460491657257,0.));
#1756=CARTESIAN_POINT('',(-0.0066345496326685,0.0702460491657257,0.));
#1757=CARTESIAN_POINT('',(-0.0101345496326685,0.0702460491657257,0.));
#1758=CARTESIAN_POINT('',(-0.0581345496326685,0.0502460491657257,0.));
#1759=CARTESIAN_POINT('',(-0.0591345496326685,0.0502460491657257,0.));
#1760=CARTESIAN_POINT('',(-0.0581345496326685,0.0502460491657257,0.02));
#1761=CARTESIAN_POINT('',(-0.0066345496326685,0.0702460491657257,0.02));
#1762=CARTESIAN_POINT('',(0.0168654503673315,0.0902460491657257,0.02));
#1763=CARTESIAN_POINT('',(-0.0581345496326685,0.0902460491657257,0.02));
#1764=CARTESIAN_POINT('',(0.0168654503673315,0.0502460491657257,0.02));
#1765=CARTESIAN_POINT('',(0.,0.,0.));
#1766=CARTESIAN_POINT('',(-6.93889390390723E-18,0.0125,0.015));
#1767=CARTESIAN_POINT('',(-0.0316,0.0125,0.015));
#1768=CARTESIAN_POINT('',(-0.0316,0.0125,0.015));
#1769=CARTESIAN_POINT('',(-0.0316,0.0125,0.012));
#1770=CARTESIAN_POINT('',(-6.93889390390723E-18,0.0125,0.012));
#1771=CARTESIAN_POINT('',(0.0316,0.0125,0.012));
#1772=CARTESIAN_POINT('',(0.0316,0.0125,0.015));
#1773=CARTESIAN_POINT('',(0.0316,0.0125,0.015));
#1774=CARTESIAN_POINT('',(-6.93889390390723E-18,0.0125,0.015));
#1775=CARTESIAN_POINT('',(0.0316,3.46944695195361E-18,0.015));
#1776=CARTESIAN_POINT('',(0.0316,3.46944695195361E-18,0.012));
#1777=CARTESIAN_POINT('',(0.0316,-0.0125,0.012));
#1778=CARTESIAN_POINT('',(0.0316,-0.0125,0.015));
#1779=CARTESIAN_POINT('',(0.0316,-0.0125,0.015));
#1780=CARTESIAN_POINT('',(0.0316,3.46944695195361E-18,0.015));
#1781=CARTESIAN_POINT('',(-6.93889390390723E-18,-0.0125,0.015));
#1782=CARTESIAN_POINT('',(-6.93889390390723E-18,-0.0125,0.012));
#1783=CARTESIAN_POINT('',(-0.0316,-0.0125,0.012));
#1784=CARTESIAN_POINT('',(-0.0316,-0.0125,0.015));
#1785=CARTESIAN_POINT('',(-0.0316,-0.0125,0.015));
#1786=CARTESIAN_POINT('',(-6.93889390390723E-18,-0.0125,0.015));
#1787=CARTESIAN_POINT('',(-0.0316,-3.46944695195361E-18,0.015));
#1788=CARTESIAN_POINT('',(-0.0316,-3.46944695195361E-18,0.012));
#1789=CARTESIAN_POINT('',(-0.0316,-3.46944695195361E-18,0.015));
#1790=CARTESIAN_POINT('',(-6.93889390390723E-18,-3.46944695195361E-18,0.));
#1791=CARTESIAN_POINT('',(0.0373621087174468,-0.02,0.));
#1792=CARTESIAN_POINT('',(0.0363621087174468,-0.02,0.));
#1793=CARTESIAN_POINT('',(-0.0373621087174468,0.02,0.));
#1794=CARTESIAN_POINT('',(-0.0383621087174469,0.02,0.));
#1795=CARTESIAN_POINT('',(0.0373621087174468,0.02,0.));
#1796=CARTESIAN_POINT('',(0.0363621087174468,0.02,0.));
#1797=CARTESIAN_POINT('',(-0.0373621087174468,-0.02,0.));
#1798=CARTESIAN_POINT('',(-0.0383621087174469,-0.02,0.));
#1799=CARTESIAN_POINT('',(0.,0.0225,0.));
#1800=CARTESIAN_POINT('',(-0.0398621087174469,0.0225,0.));
#1801=CARTESIAN_POINT('',(0.0398621087174469,0.0225,0.));
#1802=CARTESIAN_POINT('',(0.0398621087174469,-3.46944695195361E-18,0.));
#1803=CARTESIAN_POINT('',(0.0398621087174469,-0.0225,0.));
#1804=CARTESIAN_POINT('',(-0.0351,-0.0225,0.));
#1805=CARTESIAN_POINT('',(-0.0398621087174469,-0.0225,0.));
#1806=CARTESIAN_POINT('',(-0.0398621087174469,-3.46944695195361E-18,0.));
#1807=CARTESIAN_POINT('',(-0.0348621087174468,0.,0.));
#1808=CARTESIAN_POINT('',(-0.0348621087174468,0.0175,0.));
#1809=CARTESIAN_POINT('',(-0.0348621087174468,-0.0175,0.));
#1810=CARTESIAN_POINT('',(0.,-0.0175,0.));
#1811=CARTESIAN_POINT('',(0.0348621087174468,-0.0175,0.));
#1812=CARTESIAN_POINT('',(0.0348621087174468,0.,0.));
#1813=CARTESIAN_POINT('',(0.0348621087174468,0.0175,0.));
#1814=CARTESIAN_POINT('',(0.,0.0175,0.));
#1815=CARTESIAN_POINT('',(-0.0291,0.0142,0.025));
#1816=CARTESIAN_POINT('',(-0.0291,0.0142,0.015));
#1817=CARTESIAN_POINT('',(-0.0281,0.0142,0.015));
#1818=CARTESIAN_POINT('',(-0.0291,0.0142,0.012));
#1819=CARTESIAN_POINT('',(-0.0301,0.0142,0.012));
#1820=CARTESIAN_POINT('',(0.0291,0.0142,0.025));
#1821=CARTESIAN_POINT('',(0.0291,0.0142,0.015));
#1822=CARTESIAN_POINT('',(0.0301,0.0142,0.015));
#1823=CARTESIAN_POINT('',(0.0291,0.0142,0.012));
#1824=CARTESIAN_POINT('',(0.0281,0.0142,0.012));
#1825=CARTESIAN_POINT('',(0.0291,-0.0142,0.025));
#1826=CARTESIAN_POINT('',(0.0291,-0.0142,0.015));
#1827=CARTESIAN_POINT('',(0.0301,-0.0142,0.015));
#1828=CARTESIAN_POINT('',(0.0291,-0.0142,0.012));
#1829=CARTESIAN_POINT('',(0.0281,-0.0142,0.012));
#1830=CARTESIAN_POINT('',(-0.0291,-0.0142,0.025));
#1831=CARTESIAN_POINT('',(-0.0291,-0.0142,0.015));
#1832=CARTESIAN_POINT('',(-0.0281,-0.0142,0.015));
#1833=CARTESIAN_POINT('',(-0.0291,-0.0142,0.012));
#1834=CARTESIAN_POINT('',(-0.0301,-0.0142,0.012));
#1835=CARTESIAN_POINT('',(0.,0.0225,0.015));
#1836=CARTESIAN_POINT('',(-0.0398621087174469,0.0225,0.015));
#1837=CARTESIAN_POINT('',(-0.0398621087174469,0.0225,0.015));
#1838=CARTESIAN_POINT('',(0.,0.0225,0.015));
#1839=CARTESIAN_POINT('',(0.0398621087174469,0.0225,0.015));
#1840=CARTESIAN_POINT('',(0.0398621087174469,0.0225,0.015));
#1841=CARTESIAN_POINT('',(-0.0351,-0.0225,0.015));
#1842=CARTESIAN_POINT('',(0.0398621087174469,-0.0225,0.015));
#1843=CARTESIAN_POINT('',(0.0398621087174469,-0.0225,0.015));
#1844=CARTESIAN_POINT('',(-0.0351,-0.0225,0.015));
#1845=CARTESIAN_POINT('',(-0.0398621087174469,-0.0225,0.015));
#1846=CARTESIAN_POINT('',(-0.0398621087174469,-0.0225,0.015));
#1847=CARTESIAN_POINT('',(-6.93889390390723E-18,-3.46944695195361E-18,0.015));
#1848=CARTESIAN_POINT('',(-0.0398621087174469,-3.46944695195361E-18,0.015));
#1849=CARTESIAN_POINT('',(0.0398621087174469,-3.46944695195361E-18,0.015));
#1850=CARTESIAN_POINT('',(-0.0348621087174468,0.,0.012));
#1851=CARTESIAN_POINT('',(-0.0348621087174468,0.0175,0.012));
#1852=CARTESIAN_POINT('',(-0.0348621087174468,0.0175,0.012));
#1853=CARTESIAN_POINT('',(-0.0348621087174468,0.,0.012));
#1854=CARTESIAN_POINT('',(-0.0348621087174468,-0.0175,0.012));
#1855=CARTESIAN_POINT('',(-0.0348621087174468,-0.0175,0.012));
#1856=CARTESIAN_POINT('',(0.,0.0175,0.012));
#1857=CARTESIAN_POINT('',(0.0348621087174468,0.0175,0.012));
#1858=CARTESIAN_POINT('',(0.0348621087174468,0.0175,0.012));
#1859=CARTESIAN_POINT('',(0.,0.0175,0.012));
#1860=CARTESIAN_POINT('',(0.0348621087174468,0.,0.012));
#1861=CARTESIAN_POINT('',(0.0348621087174468,-0.0175,0.012));
#1862=CARTESIAN_POINT('',(0.0348621087174468,-0.0175,0.012));
#1863=CARTESIAN_POINT('',(0.0348621087174468,0.,0.012));
#1864=CARTESIAN_POINT('',(0.,-0.0175,0.012));
#1865=CARTESIAN_POINT('',(0.,-0.0175,0.012));
#1866=CARTESIAN_POINT('',(-6.93889390390723E-18,-3.46944695195361E-18,0.012));
#1867=CARTESIAN_POINT('',(0.0398621087174469,-3.46944695195361E-18,0.015));
#1868=CARTESIAN_POINT('',(-0.0398621087174469,-3.46944695195361E-18,0.015));
#1869=CARTESIAN_POINT('',(-0.0373621087174468,-0.02,0.005));
#1870=CARTESIAN_POINT('',(-0.0373621087174468,-0.02,0.005));
#1871=CARTESIAN_POINT('',(-0.0383621087174469,-0.02,0.005));
#1872=CARTESIAN_POINT('',(0.,-3.46944695195361E-18,0.005));
#1873=CARTESIAN_POINT('',(0.0373621087174468,0.02,0.005));
#1874=CARTESIAN_POINT('',(0.0373621087174468,0.02,0.005));
#1875=CARTESIAN_POINT('',(0.0363621087174468,0.02,0.005));
#1876=CARTESIAN_POINT('',(0.,-3.46944695195361E-18,0.005));
#1877=CARTESIAN_POINT('',(-0.0373621087174468,0.02,0.005));
#1878=CARTESIAN_POINT('',(-0.0373621087174468,0.02,0.005));
#1879=CARTESIAN_POINT('',(-0.0383621087174469,0.02,0.005));
#1880=CARTESIAN_POINT('',(0.,-3.46944695195361E-18,0.005));
#1881=CARTESIAN_POINT('',(0.0373621087174468,-0.02,0.005));
#1882=CARTESIAN_POINT('',(0.0373621087174468,-0.02,0.005));
#1883=CARTESIAN_POINT('',(0.0363621087174468,-0.02,0.005));
#1884=CARTESIAN_POINT('',(0.,-3.46944695195361E-18,0.005));
#1885=CARTESIAN_POINT('',(0.,0.,0.));
#1886=CARTESIAN_POINT('',(-0.0677,-0.0975691014528274,0.005));
#1887=CARTESIAN_POINT('',(-0.0677,-0.117069101452827,0.005));
#1888=CARTESIAN_POINT('',(-0.0677,-0.117069101452827,0.005));
#1889=CARTESIAN_POINT('',(-0.0677,-0.117069101452827,0.003));
#1890=CARTESIAN_POINT('',(-0.0677,-0.0975691014528274,0.003));
#1891=CARTESIAN_POINT('',(-0.0677,-0.110069101452827,0.003));
#1892=CARTESIAN_POINT('',(-0.0677,-0.110069101452827,0.003));
#1893=CARTESIAN_POINT('',(-0.0677,-0.110069101452827,0.002));
#1894=CARTESIAN_POINT('',(-0.0677,-0.0975691014528274,0.002));
#1895=CARTESIAN_POINT('',(-0.0677,-0.0850691014528275,0.002));
#1896=CARTESIAN_POINT('',(-0.0677,-0.0850691014528275,0.003));
#1897=CARTESIAN_POINT('',(-0.0677,-0.0850691014528275,0.003));
#1898=CARTESIAN_POINT('',(-0.0677,-0.0975691014528274,0.003));
#1899=CARTESIAN_POINT('',(-0.0677,-0.0780691014528274,0.003));
#1900=CARTESIAN_POINT('',(-0.0677,-0.0780691014528274,0.005));
#1901=CARTESIAN_POINT('',(-0.0677,-0.0780691014528274,0.005));
#1902=CARTESIAN_POINT('',(-0.0677,-0.0975691014528274,0.005));
#1903=CARTESIAN_POINT('',(-0.0366,-0.0780691014528274,0.005));
#1904=CARTESIAN_POINT('',(-0.0366,-0.0780691014528274,0.003));
#1905=CARTESIAN_POINT('',(-0.0627,-0.0780691014528274,0.003));
#1906=CARTESIAN_POINT('',(-0.0627,-0.0780691014528274,0.003));
#1907=CARTESIAN_POINT('',(-0.0627,-0.0780691014528274,0.002));
#1908=CARTESIAN_POINT('',(-0.0366,-0.0780691014528274,0.002));
#1909=CARTESIAN_POINT('',(-0.0105,-0.0780691014528274,0.002));
#1910=CARTESIAN_POINT('',(-0.0105,-0.0780691014528274,0.003));
#1911=CARTESIAN_POINT('',(-0.0105,-0.0780691014528274,0.003));
#1912=CARTESIAN_POINT('',(-0.0366,-0.0780691014528274,0.003));
#1913=CARTESIAN_POINT('',(-0.0055,-0.0780691014528274,0.003));
#1914=CARTESIAN_POINT('',(-0.0055,-0.0780691014528274,0.005));
#1915=CARTESIAN_POINT('',(-0.0055,-0.0780691014528274,0.005));
#1916=CARTESIAN_POINT('',(-0.0366,-0.0780691014528274,0.005));
#1917=CARTESIAN_POINT('',(-0.0366,-0.0975691014528274,0.002));
#1918=CARTESIAN_POINT('',(-0.0105,-0.0975691014528274,0.002));
#1919=CARTESIAN_POINT('',(-0.0105,-0.110069101452827,0.002));
#1920=CARTESIAN_POINT('',(-0.0105,-0.0850691014528275,0.002));
#1921=CARTESIAN_POINT('',(-0.008,-0.110069101452827,0.002));
#1922=CARTESIAN_POINT('',(-0.0055,-0.110069101452827,0.002));
#1923=CARTESIAN_POINT('',(-0.0055,-0.0975691014528274,0.002));
#1924=CARTESIAN_POINT('',(-0.0055,-0.0850691014528275,0.002));
#1925=CARTESIAN_POINT('',(-0.008,-0.0850691014528275,0.002));
#1926=CARTESIAN_POINT('',(-0.0366,-0.0975691014528274,0.002));
#1927=CARTESIAN_POINT('',(-0.0366,-0.117069101452827,0.002));
#1928=CARTESIAN_POINT('',(-0.0627,-0.117069101452827,0.002));
#1929=CARTESIAN_POINT('',(-0.0105,-0.117069101452827,0.002));
#1930=CARTESIAN_POINT('',(-0.0105,-0.0975691014528274,0.002));
#1931=CARTESIAN_POINT('',(-0.0105,-0.115069101452827,0.002));
#1932=CARTESIAN_POINT('',(-0.0366,-0.115069101452827,0.002));
#1933=CARTESIAN_POINT('',(-0.0627,-0.115069101452827,0.002));
#1934=CARTESIAN_POINT('',(-0.0627,-0.0975691014528274,0.002));
#1935=CARTESIAN_POINT('',(-0.0366,-0.0975691014528274,0.002));
#1936=CARTESIAN_POINT('',(-0.0652,-0.110069101452827,0.002));
#1937=CARTESIAN_POINT('',(-0.0627,-0.110069101452827,0.002));
#1938=CARTESIAN_POINT('',(-0.0627,-0.0975691014528274,0.002));
#1939=CARTESIAN_POINT('',(-0.0627,-0.0850691014528275,0.002));
#1940=CARTESIAN_POINT('',(-0.0652,-0.0850691014528275,0.002));
#1941=CARTESIAN_POINT('',(-0.0366,-0.0975691014528274,0.002));
#1942=CARTESIAN_POINT('',(-0.0627,-0.0975691014528274,0.002));
#1943=CARTESIAN_POINT('',(-0.0627,-0.0800691014528275,0.002));
#1944=CARTESIAN_POINT('',(-0.0366,-0.0800691014528275,0.002));
#1945=CARTESIAN_POINT('',(-0.0105,-0.0800691014528275,0.002));
#1946=CARTESIAN_POINT('',(-0.0105,-0.0975691014528274,0.002));
#1947=CARTESIAN_POINT('',(-0.07045,-0.120069101452827,0.005));
#1948=CARTESIAN_POINT('',(-0.07045,-0.120069101452827,0.));
#1949=CARTESIAN_POINT('',(-0.0762,-0.120069101452827,0.));
#1950=CARTESIAN_POINT('',(0.003,-0.120069101452827,0.));
#1951=CARTESIAN_POINT('',(0.003,-0.120069101452827,0.005));
#1952=CARTESIAN_POINT('',(0.003,-0.120069101452827,0.005));
#1953=CARTESIAN_POINT('',(-0.07045,-0.120069101452827,0.005));
#1954=CARTESIAN_POINT('',(-0.0762,-0.120069101452827,0.005));
#1955=CARTESIAN_POINT('',(-0.0762,-0.120069101452827,0.005));
#1956=CARTESIAN_POINT('',(-0.0366,-0.117069101452827,0.005));
#1957=CARTESIAN_POINT('',(-0.0366,-0.117069101452827,0.003));
#1958=CARTESIAN_POINT('',(-0.0105,-0.117069101452827,0.003));
#1959=CARTESIAN_POINT('',(-0.0055,-0.117069101452827,0.003));
#1960=CARTESIAN_POINT('',(-0.0105,-0.117069101452827,0.003));
#1961=CARTESIAN_POINT('',(-0.0627,-0.117069101452827,0.003));
#1962=CARTESIAN_POINT('',(-0.0627,-0.117069101452827,0.003));
#1963=CARTESIAN_POINT('',(-0.0366,-0.117069101452827,0.003));
#1964=CARTESIAN_POINT('',(-0.0366,-0.117069101452827,0.005));
#1965=CARTESIAN_POINT('',(-0.0055,-0.117069101452827,0.005));
#1966=CARTESIAN_POINT('',(-0.0055,-0.117069101452827,0.005));
#1967=CARTESIAN_POINT('',(-0.0055,-0.0975691014528274,0.005));
#1968=CARTESIAN_POINT('',(-0.0055,-0.110069101452827,0.003));
#1969=CARTESIAN_POINT('',(-0.0055,-0.110069101452827,0.003));
#1970=CARTESIAN_POINT('',(-0.0055,-0.0975691014528274,0.003));
#1971=CARTESIAN_POINT('',(-0.0055,-0.0975691014528274,0.005));
#1972=CARTESIAN_POINT('',(-0.0055,-0.0975691014528274,0.003));
#1973=CARTESIAN_POINT('',(-0.0055,-0.0850691014528275,0.003));
#1974=CARTESIAN_POINT('',(-0.0055,-0.0850691014528275,0.003));
#1975=CARTESIAN_POINT('',(-0.0366,-0.0750691014528274,0.005));
#1976=CARTESIAN_POINT('',(-0.0366,-0.0750691014528274,0.));
#1977=CARTESIAN_POINT('',(-0.0762,-0.0750691014528274,0.));
#1978=CARTESIAN_POINT('',(0.003,-0.0750691014528274,0.));
#1979=CARTESIAN_POINT('',(-0.0762,-0.0750691014528274,0.005));
#1980=CARTESIAN_POINT('',(-0.0762,-0.0750691014528274,0.005));
#1981=CARTESIAN_POINT('',(-0.0366,-0.0750691014528274,0.005));
#1982=CARTESIAN_POINT('',(0.003,-0.0750691014528274,0.005));
#1983=CARTESIAN_POINT('',(0.003,-0.0750691014528274,0.005));
#1984=CARTESIAN_POINT('',(-0.0366,-0.0975691014528274,0.005));
#1985=CARTESIAN_POINT('',(-0.0762,-0.0975691014528274,0.005));
#1986=CARTESIAN_POINT('',(0.003,-0.0975691014528274,0.005));
#1987=CARTESIAN_POINT('',(-0.0366,-0.0975691014528274,0.));
#1988=CARTESIAN_POINT('',(-0.0657,-0.0833691014528274,0.));
#1989=CARTESIAN_POINT('',(-0.0647,-0.0833691014528274,0.));
#1990=CARTESIAN_POINT('',(-0.0657,-0.111769101452827,0.));
#1991=CARTESIAN_POINT('',(-0.0647,-0.111769101452827,0.));
#1992=CARTESIAN_POINT('',(-0.0075,-0.111769101452827,0.));
#1993=CARTESIAN_POINT('',(-0.0065,-0.111769101452827,0.));
#1994=CARTESIAN_POINT('',(-0.0075,-0.0833691014528274,0.));
#1995=CARTESIAN_POINT('',(-0.0065,-0.0833691014528274,0.));
#1996=CARTESIAN_POINT('',(-0.0762,-0.0975691014528274,0.));
#1997=CARTESIAN_POINT('',(0.003,-0.0975691014528274,0.));
#1998=CARTESIAN_POINT('',(-0.0627,-0.0975691014528274,0.));
#1999=CARTESIAN_POINT('',(-0.0627,-0.115069101452827,0.));
#2000=CARTESIAN_POINT('',(-0.0627,-0.0800691014528275,0.));
#2001=CARTESIAN_POINT('',(-0.0366,-0.115069101452827,0.));
#2002=CARTESIAN_POINT('',(-0.0105,-0.115069101452827,0.));
#2003=CARTESIAN_POINT('',(-0.0105,-0.0975691014528274,0.));
#2004=CARTESIAN_POINT('',(-0.0105,-0.0800691014528275,0.));
#2005=CARTESIAN_POINT('',(-0.0366,-0.0800691014528275,0.));
#2006=CARTESIAN_POINT('',(-0.0627,-0.0975691014528274,0.002));
#2007=CARTESIAN_POINT('',(-0.0627,-0.0800691014528275,0.002));
#2008=CARTESIAN_POINT('',(-0.0627,-0.0975691014528274,0.003));
#2009=CARTESIAN_POINT('',(-0.0627,-0.0850691014528275,0.003));
#2010=CARTESIAN_POINT('',(-0.0627,-0.0850691014528275,0.003));
#2011=CARTESIAN_POINT('',(-0.0627,-0.110069101452827,0.003));
#2012=CARTESIAN_POINT('',(-0.0627,-0.110069101452827,0.003));
#2013=CARTESIAN_POINT('',(-0.0627,-0.0975691014528274,0.003));
#2014=CARTESIAN_POINT('',(-0.0627,-0.115069101452827,0.002));
#2015=CARTESIAN_POINT('',(-0.0366,-0.115069101452827,0.002));
#2016=CARTESIAN_POINT('',(-0.0105,-0.115069101452827,0.002));
#2017=CARTESIAN_POINT('',(-0.0105,-0.0975691014528274,0.002));
#2018=CARTESIAN_POINT('',(-0.0105,-0.0975691014528274,0.003));
#2019=CARTESIAN_POINT('',(-0.0105,-0.110069101452827,0.003));
#2020=CARTESIAN_POINT('',(-0.0105,-0.110069101452827,0.003));
#2021=CARTESIAN_POINT('',(-0.0105,-0.0850691014528275,0.003));
#2022=CARTESIAN_POINT('',(-0.0105,-0.0850691014528275,0.003));
#2023=CARTESIAN_POINT('',(-0.0105,-0.0975691014528274,0.003));
#2024=CARTESIAN_POINT('',(-0.0105,-0.0800691014528275,0.002));
#2025=CARTESIAN_POINT('',(-0.0366,-0.0800691014528275,0.002));
#2026=CARTESIAN_POINT('',(0.003,-0.0975691014528274,0.005));
#2027=CARTESIAN_POINT('',(-0.0762,-0.0975691014528274,0.005));
#2028=CARTESIAN_POINT('',(-0.008,-0.0850691014528275,0.003));
#2029=CARTESIAN_POINT('',(-0.008,-0.0850691014528275,0.003));
#2030=CARTESIAN_POINT('',(-0.0366,-0.0975691014528274,0.003));
#2031=CARTESIAN_POINT('',(-0.0075,-0.0833691014528274,0.003));
#2032=CARTESIAN_POINT('',(-0.0065,-0.0833691014528274,0.003));
#2033=CARTESIAN_POINT('',(-0.0652,-0.0850691014528275,0.003));
#2034=CARTESIAN_POINT('',(-0.0652,-0.0850691014528275,0.003));
#2035=CARTESIAN_POINT('',(-0.0366,-0.0975691014528274,0.003));
#2036=CARTESIAN_POINT('',(-0.0657,-0.0833691014528274,0.003));
#2037=CARTESIAN_POINT('',(-0.0647,-0.0833691014528274,0.003));
#2038=CARTESIAN_POINT('',(-0.0652,-0.110069101452827,0.003));
#2039=CARTESIAN_POINT('',(-0.0652,-0.110069101452827,0.003));
#2040=CARTESIAN_POINT('',(-0.0366,-0.0975691014528274,0.003));
#2041=CARTESIAN_POINT('',(-0.0657,-0.111769101452827,0.003));
#2042=CARTESIAN_POINT('',(-0.0647,-0.111769101452827,0.003));
#2043=CARTESIAN_POINT('',(-0.008,-0.110069101452827,0.003));
#2044=CARTESIAN_POINT('',(-0.008,-0.110069101452827,0.003));
#2045=CARTESIAN_POINT('',(-0.0366,-0.0975691014528274,0.003));
#2046=CARTESIAN_POINT('',(-0.0075,-0.111769101452827,0.003));
#2047=CARTESIAN_POINT('',(-0.0065,-0.111769101452827,0.003));
#2048=CARTESIAN_POINT('',(-0.0075,-0.111769101452827,-0.022));
#2049=CARTESIAN_POINT('',(-0.0657,-0.111769101452827,-0.022));
#2050=CARTESIAN_POINT('',(-0.0657,-0.0833691014528274,-0.022));
#2051=CARTESIAN_POINT('',(-0.0075,-0.0833691014528274,-0.022));
#2052=MECHANICAL_DESIGN_GEOMETRIC_PRESENTATION_REPRESENTATION('',(#1245),
#2055);
#2053=MECHANICAL_DESIGN_GEOMETRIC_PRESENTATION_REPRESENTATION('',(#1246),
#2056);
#2054=MECHANICAL_DESIGN_GEOMETRIC_PRESENTATION_REPRESENTATION('',(#1247),
#2057);
#2055=(
GEOMETRIC_REPRESENTATION_CONTEXT(3)
GLOBAL_UNCERTAINTY_ASSIGNED_CONTEXT((#2058))
GLOBAL_UNIT_ASSIGNED_CONTEXT((#2067,#2064,#2061))
REPRESENTATION_CONTEXT('Part 3','TOP_LEVEL_ASSEMBLY_PART')
);
#2056=(
GEOMETRIC_REPRESENTATION_CONTEXT(3)
GLOBAL_UNCERTAINTY_ASSIGNED_CONTEXT((#2059))
GLOBAL_UNIT_ASSIGNED_CONTEXT((#2068,#2065,#2062))
REPRESENTATION_CONTEXT('Part 1','TOP_LEVEL_ASSEMBLY_PART')
);
#2057=(
GEOMETRIC_REPRESENTATION_CONTEXT(3)
GLOBAL_UNCERTAINTY_ASSIGNED_CONTEXT((#2060))
GLOBAL_UNIT_ASSIGNED_CONTEXT((#2069,#2066,#2063))
REPRESENTATION_CONTEXT('Part 2','TOP_LEVEL_ASSEMBLY_PART')
);
#2058=UNCERTAINTY_MEASURE_WITH_UNIT(LENGTH_MEASURE(1.E-8),#2067,
'DISTANCE_ACCURACY_VALUE','Maximum Tolerance applied to model');
#2059=UNCERTAINTY_MEASURE_WITH_UNIT(LENGTH_MEASURE(1.E-8),#2068,
'DISTANCE_ACCURACY_VALUE','Maximum Tolerance applied to model');
#2060=UNCERTAINTY_MEASURE_WITH_UNIT(LENGTH_MEASURE(1.E-8),#2069,
'DISTANCE_ACCURACY_VALUE','Maximum Tolerance applied to model');
#2061=(
NAMED_UNIT(*)
SI_UNIT($,.STERADIAN.)
SOLID_ANGLE_UNIT()
);
#2062=(
NAMED_UNIT(*)
SI_UNIT($,.STERADIAN.)
SOLID_ANGLE_UNIT()
);
#2063=(
NAMED_UNIT(*)
SI_UNIT($,.STERADIAN.)
SOLID_ANGLE_UNIT()
);
#2064=(
NAMED_UNIT(*)
PLANE_ANGLE_UNIT()
SI_UNIT($,.RADIAN.)
);
#2065=(
NAMED_UNIT(*)
PLANE_ANGLE_UNIT()
SI_UNIT($,.RADIAN.)
);
#2066=(
NAMED_UNIT(*)
PLANE_ANGLE_UNIT()
SI_UNIT($,.RADIAN.)
);
#2067=(
LENGTH_UNIT()
NAMED_UNIT(*)
SI_UNIT($,.METRE.)
);
#2068=(
LENGTH_UNIT()
NAMED_UNIT(*)
SI_UNIT($,.METRE.)
);
#2069=(
LENGTH_UNIT()
NAMED_UNIT(*)
SI_UNIT($,.METRE.)
);
#2070=PRODUCT_DEFINITION_SHAPE('','',#2073);
#2071=PRODUCT_DEFINITION_SHAPE('','',#2074);
#2072=PRODUCT_DEFINITION_SHAPE('','',#2075);
#2073=PRODUCT_DEFINITION('','',#2079,#2076);
#2074=PRODUCT_DEFINITION('','',#2080,#2077);
#2075=PRODUCT_DEFINITION('','',#2081,#2078);
#2076=PRODUCT_DEFINITION_CONTEXT('',#2097,'design');
#2077=PRODUCT_DEFINITION_CONTEXT('',#2098,'design');
#2078=PRODUCT_DEFINITION_CONTEXT('',#2099,'design');
#2079=PRODUCT_DEFINITION_FORMATION_WITH_SPECIFIED_SOURCE('','',#2085,
 .NOT_KNOWN.);
#2080=PRODUCT_DEFINITION_FORMATION_WITH_SPECIFIED_SOURCE('','',#2086,
 .NOT_KNOWN.);
#2081=PRODUCT_DEFINITION_FORMATION_WITH_SPECIFIED_SOURCE('','',#2087,
 .NOT_KNOWN.);
#2082=PRODUCT_RELATED_PRODUCT_CATEGORY('','',(#2085));
#2083=PRODUCT_RELATED_PRODUCT_CATEGORY('','',(#2086));
#2084=PRODUCT_RELATED_PRODUCT_CATEGORY('','',(#2087));
#2085=PRODUCT('Part 3','Part 3','Part 3',(#2091));
#2086=PRODUCT('Part 1','Part 1','Part 1',(#2092));
#2087=PRODUCT('Part 2','Part 2','Part 2',(#2093));
#2088=PRODUCT_CATEGORY('','');
#2089=PRODUCT_CATEGORY('','');
#2090=PRODUCT_CATEGORY('','');
#2091=PRODUCT_CONTEXT('',#2097,'mechanical');
#2092=PRODUCT_CONTEXT('',#2098,'mechanical');
#2093=PRODUCT_CONTEXT('',#2099,'mechanical');
#2094=APPLICATION_PROTOCOL_DEFINITION('international standard',
'ap242_managed_model_based_3d_engineering',2020,#2097);
#2095=APPLICATION_PROTOCOL_DEFINITION('international standard',
'ap242_managed_model_based_3d_engineering',2020,#2098);
#2096=APPLICATION_PROTOCOL_DEFINITION('international standard',
'ap242_managed_model_based_3d_engineering',2020,#2099);
#2097=APPLICATION_CONTEXT('managed model based 3d engineering');
#2098=APPLICATION_CONTEXT('managed model based 3d engineering');
#2099=APPLICATION_CONTEXT('managed model based 3d engineering');
ENDSEC;
END-ISO-10303-21;
